<?xml version="1.0" encoding="UTF-8"?>
<svg width="416px" height="166px" viewBox="0 0 416 166" version="1.1" xmlns="http://www.w3.org/2000/svg" xmlns:xlink="http://www.w3.org/1999/xlink">
    <title>数字科技集团联标-中文</title>
    <defs>
        <path d="M6.61044116,0 C6.42444116,0.001 6.22544116,0.027 6.01344116,0.08 L6.01344116,0.08 C4.83244116,0.376 3.81244116,1.21 3.10844116,2.182 L3.10844116,2.182 C2.13144116,3.535 1.59744116,5.132 1.21744116,6.74 L1.21744116,6.74 C0.749441162,8.726 0.425441162,10.736 0.0644411617,12.739 L0.0644411617,12.739 C-0.00555883833,13.129 -0.0425588383,13.537 0.0814411617,13.912 L0.0814411617,13.912 C0.222441162,14.338 0.525441162,14.58 0.853441162,14.647 L0.853441162,14.647 C1.34044116,14.749 1.87944116,14.467 2.02144116,13.831 L2.02144116,13.831 C2.57544116,11.334 3.17644116,8.205 5.09644116,6.353 L5.09644116,6.353 C6.14744116,5.34 7.57744116,4.624 8.16844116,3.215 L8.16844116,3.215 C8.79044116,1.732 8.19844116,0.012 6.64444116,0 L6.64444116,0 L6.61044116,0 Z" id="path-1"></path>
        <path d="M14.554,0.064 C13.722,0.354 13.4,1.509 12.755,2.074 L12.755,2.074 C11.848,2.868 10.742,3.302 9.72,3.911 L9.72,3.911 C8.834,4.439 7.982,5.014 7.182,5.667 L7.182,5.667 C5.593,6.963 4.208,8.508 3.097,10.231 L3.097,10.231 C1.091,13.34 0.016,16.993 0,20.686 L0,20.686 L0,20.848 C0.001,21.072 0.006,21.297 0.014,21.521 L0.014,21.521 C0.425,32.006 9.063,40.232 19.482,40.25 L19.482,40.25 L19.554,40.25 C20.102,40.249 20.654,40.225 21.21,40.178 L21.21,40.178 C31.189,39.329 38.986,30.917 39.056,20.923 L39.056,20.923 C39.08,17.54 38.225,14.176 36.564,11.227 L36.564,11.227 C34.959,8.376 32.631,5.948 29.854,4.218 L29.854,4.218 C27.01,2.447 23.724,1.432 20.377,1.291 L20.377,1.291 C20.096,1.279 19.815,1.279 19.535,1.279 L19.535,1.279 C19.278,1.279 19.021,1.279 18.768,1.269 L18.768,1.269 C18.065,1.242 17.377,1.143 16.729,0.772 L16.729,0.772 C16.22,0.482 15.576,0.001 14.937,0 L14.937,0 C14.809,0 14.681,0.02 14.554,0.064" id="path-3"></path>
        <linearGradient x1="100%" y1="57.1155683%" x2="0%" y2="57.1155683%" id="linearGradient-5">
            <stop stop-color="#3795FC" offset="0%"></stop>
            <stop stop-color="#2277FB" offset="99.961757%"></stop>
        </linearGradient>
        <path d="M1.15327767,0.431 C0.734277672,0.774 0.452277672,1.259 0.272277672,1.793 L0.272277672,1.793 C0.0482776722,2.458 -0.0187223278,3.2 0.00427767216,3.837 L0.00427767216,3.837 C0.0142776722,4.1 0.0322776722,4.364 0.0582776722,4.626 L0.0582776722,4.626 C0.0872776722,4.915 0.126277672,5.205 0.172277672,5.492 L0.172277672,5.492 C0.434277672,7.09 0.967277672,8.63 1.59627767,10.117 L1.59627767,10.117 C2.20827767,11.562 2.85527767,13.039 3.61427767,14.413 L3.61427767,14.413 C3.94327767,15.008 4.45127767,15.843 5.24727767,15.449 L5.24727767,15.449 C5.71627767,15.217 5.97927767,14.717 5.90427767,14.111 L5.90427767,14.111 C5.85927767,13.749 5.61827767,13.426 5.47327767,13.109 L5.47327767,13.109 C4.72727767,11.474 4.10627767,9.564 4.15927767,7.713 L4.15927767,7.713 C4.22327767,5.518 5.43127767,2.596 3.83627767,0.689 L3.83627767,0.689 C3.45727767,0.235 2.91127767,0 2.36127767,0 L2.36127767,0 C1.93627767,0 1.50827767,0.141 1.15327767,0.431" id="path-6"></path>
    </defs>
    <g id="数字科技集团联标-中文" stroke="none" stroke-width="1" fill="none" fill-rule="evenodd">
        <rect id="矩形备份" fill="#F7F7F7" x="-0.5" y="-0.382938167" width="416" height="166.382938"></rect>
        <g id="编组" transform="translate(54.873350, 57.080062)">
            <g transform="translate(21.632559, 0.000000)">
                <mask id="mask-2" fill="white">
                    <use xlink:href="#path-1"></use>
                </mask>
                <g id="Clip-2"></g>
                <path d="M6.61044116,0 C6.42444116,0.001 6.22544116,0.027 6.01344116,0.08 L6.01344116,0.08 C4.83244116,0.376 3.81244116,1.21 3.10844116,2.182 L3.10844116,2.182 C2.13144116,3.535 1.59744116,5.132 1.21744116,6.74 L1.21744116,6.74 C0.749441162,8.726 0.425441162,10.736 0.0644411617,12.739 L0.0644411617,12.739 C-0.00555883833,13.129 -0.0425588383,13.537 0.0814411617,13.912 L0.0814411617,13.912 C0.222441162,14.338 0.525441162,14.58 0.853441162,14.647 L0.853441162,14.647 C1.34044116,14.749 1.87944116,14.467 2.02144116,13.831 L2.02144116,13.831 C2.57544116,11.334 3.17644116,8.205 5.09644116,6.353 L5.09644116,6.353 C6.14744116,5.34 7.57744116,4.624 8.16844116,3.215 L8.16844116,3.215 C8.79044116,1.732 8.19844116,0.012 6.64444116,0 L6.64444116,0 L6.61044116,0 Z" id="Fill-1" fill="#328AFB" mask="url(#mask-2)"></path>
            </g>
            <g transform="translate(0.000000, 10.824000)">
                <mask id="mask-4" fill="white">
                    <use xlink:href="#path-3"></use>
                </mask>
                <g id="Clip-4"></g>
                <path d="M14.554,0.064 C13.722,0.354 13.4,1.509 12.755,2.074 L12.755,2.074 C11.848,2.868 10.742,3.302 9.72,3.911 L9.72,3.911 C8.834,4.439 7.982,5.014 7.182,5.667 L7.182,5.667 C5.593,6.963 4.208,8.508 3.097,10.231 L3.097,10.231 C1.091,13.34 0.016,16.993 0,20.686 L0,20.686 L0,20.848 C0.001,21.072 0.006,21.297 0.014,21.521 L0.014,21.521 C0.425,32.006 9.063,40.232 19.482,40.25 L19.482,40.25 L19.554,40.25 C20.102,40.249 20.654,40.225 21.21,40.178 L21.21,40.178 C31.189,39.329 38.986,30.917 39.056,20.923 L39.056,20.923 C39.08,17.54 38.225,14.176 36.564,11.227 L36.564,11.227 C34.959,8.376 32.631,5.948 29.854,4.218 L29.854,4.218 C27.01,2.447 23.724,1.432 20.377,1.291 L20.377,1.291 C20.096,1.279 19.815,1.279 19.535,1.279 L19.535,1.279 C19.278,1.279 19.021,1.279 18.768,1.269 L18.768,1.269 C18.065,1.242 17.377,1.143 16.729,0.772 L16.729,0.772 C16.22,0.482 15.576,0.001 14.937,0 L14.937,0 C14.809,0 14.681,0.02 14.554,0.064" id="Fill-3" fill="url(#linearGradient-5)" mask="url(#mask-4)"></path>
            </g>
            <g transform="translate(5.070722, 3.010000)">
                <mask id="mask-7" fill="white">
                    <use xlink:href="#path-6"></use>
                </mask>
                <g id="Clip-6"></g>
                <path d="M1.15327767,0.431 C0.734277672,0.774 0.452277672,1.259 0.272277672,1.793 L0.272277672,1.793 C0.0482776722,2.458 -0.0187223278,3.2 0.00427767216,3.837 L0.00427767216,3.837 C0.0142776722,4.1 0.0322776722,4.364 0.0582776722,4.626 L0.0582776722,4.626 C0.0872776722,4.915 0.126277672,5.205 0.172277672,5.492 L0.172277672,5.492 C0.434277672,7.09 0.967277672,8.63 1.59627767,10.117 L1.59627767,10.117 C2.20827767,11.562 2.85527767,13.039 3.61427767,14.413 L3.61427767,14.413 C3.94327767,15.008 4.45127767,15.843 5.24727767,15.449 L5.24727767,15.449 C5.71627767,15.217 5.97927767,14.717 5.90427767,14.111 L5.90427767,14.111 C5.85927767,13.749 5.61827767,13.426 5.47327767,13.109 L5.47327767,13.109 C4.72727767,11.474 4.10627767,9.564 4.15927767,7.713 L4.15927767,7.713 C4.22327767,5.518 5.43127767,2.596 3.83627767,0.689 L3.83627767,0.689 C3.45727767,0.235 2.91127767,0 2.36127767,0 L2.36127767,0 C1.93627767,0 1.50827767,0.141 1.15327767,0.431" id="Fill-5" fill="#328AFB" mask="url(#mask-7)"></path>
            </g>
            <g transform="translate(13.950964, 2.863000)">
                <path d="M20.2786355,34.4787 C18.5966355,36.3617 16.2996355,37.4357 13.8156355,37.5127 C11.0176355,37.5977 8.26763553,36.4617 6.06163553,34.3167 C3.84963553,32.1647 2.46063553,29.2617 2.14263553,26.1297 C1.80763553,22.8137 2.75663553,19.6317 4.76063553,17.3947 C6.44563553,15.5137 8.73563553,14.4427 11.2386355,14.3677 C11.3356355,14.3647 11.4326355,14.3637 11.5296355,14.3637 C14.2796355,14.3667 16.9826355,15.5597 19.1316355,17.7267 C21.2806355,19.8957 22.6266355,22.7827 22.9136355,25.8457 C23.2206355,29.1167 22.2556355,32.2647 20.2786355,34.4787 M23.6856355,26.2157 C23.0566355,18.9277 17.2366355,13.0287 10.7036355,13.0386873 C4.19263553,13.0477 -0.567364467,18.9297 0.0546355328,26.1767 C0.677635533,33.4267 6.45263553,39.3307 12.9706355,39.3608298 C19.5096355,39.3927 24.3156355,33.5057 23.6856355,26.2157" id="Fill-7" fill="#FFFFFF"></path>
                <path d="M87.0872355,14.8732 L81.5752355,14.8732 L81.5752355,14.0942 C81.6082355,14.0572 81.6382355,14.0202 81.6702355,13.9832 L87.0872355,13.9832 L87.0872355,14.8732 Z M81.5752355,17.5372 L87.0872355,17.5372 L87.0872355,16.6022 L81.5752355,16.6022 L81.5752355,17.5372 Z M87.0872355,20.1112 L81.9522355,20.1112 C81.6262355,20.1112 81.5752355,20.0602 81.5752355,19.7342 L81.5752355,19.2652 L87.0872355,19.2652 L87.0872355,20.1112 Z M96.5952355,29.0232 L96.9542355,27.1512 C94.4202355,26.6652 92.9282355,25.5912 92.0912355,24.7062 L97.0172355,24.7062 L97.0172355,22.8452 L88.7282355,22.8452 L88.7282355,21.8842 L96.3862355,21.8842 L96.3862355,20.1112 L89.0822355,20.1112 L89.0822355,19.2652 L95.8872355,19.2652 L95.8872355,17.5372 L89.0822355,17.5372 L89.0822355,16.6022 L95.8872355,16.6022 L95.8872355,14.8732 L89.0822355,14.8732 L89.0822355,13.9832 L96.3862355,13.9832 L96.3862355,12.2102 L89.3502355,12.2102 C89.7932355,11.9312 90.1542355,11.5772 90.4132355,11.1832 C90.6332355,10.8342 90.7502355,10.6222 90.7612355,10.6022 L89.0102355,9.6462 C89.0062355,9.6532 88.8412355,9.9772 88.3562355,10.6782 C87.4482355,11.9412 86.6522355,12.2102 85.2722355,12.2102 L83.0642355,12.2102 C83.7252355,11.2832 84.0712355,10.6592 84.1022355,10.6022 L82.3522355,9.6462 C82.3352355,9.6762 80.6692355,12.6782 77.3972355,15.4182 L78.6772355,16.9472 C79.0102355,16.6682 79.3232355,16.3872 79.6252355,16.1072 L79.6252355,20.0002 C79.6252355,21.2772 80.2322355,21.8852 81.5092355,21.8852 L86.7332355,21.8842 L86.7332355,22.8452 L78.4432355,22.8452 L78.4432355,24.7062 L83.3702355,24.7062 C82.5322355,25.5912 81.0412355,26.6652 78.5062355,27.1512 L78.8652355,29.0232 C83.1492355,28.2022 85.0472355,25.8742 85.7502355,24.7062 L86.7332355,24.7062 L86.7332355,29.2212 L88.7282355,29.2212 L88.7282355,24.7062 L89.7102355,24.7062 C90.4132355,25.8742 92.3112355,28.2022 96.5952355,29.0232 L96.5952355,29.0232 Z" id="Fill-9" fill="#000000"></path>
                <path d="M116.846036,25.6618 C116.846036,26.6468 116.259036,27.2338 115.274036,27.2338 L102.775036,27.2338 L102.775036,12.6448 L116.846036,12.6448 L116.846036,25.6618 Z M118.840036,25.6618 L118.840036,10.6508 L100.781036,10.6508 L100.781036,29.2288 L115.274036,29.2288 C117.595036,29.2288 118.840036,27.9828 118.840036,25.6618 L118.840036,25.6618 Z" id="Fill-11" fill="#000000"></path>
                <path d="M103.900736,22.4797 L104.593736,24.3497 C107.506736,23.2707 110.341736,21.1387 111.973736,18.9127 L111.973736,22.6877 C111.973736,23.4647 111.294736,24.0967 110.458736,24.0967 L108.667736,24.0967 L108.667736,26.0027 L110.635736,26.0027 C112.571736,26.0027 113.968736,24.6527 113.968736,22.7767 L113.968736,17.8177 L115.415736,17.8177 L115.415736,15.9117 L113.968736,15.9117 L113.968736,13.8637 L111.973736,13.8637 L111.973736,15.9117 L104.246736,15.9117 L104.246736,17.8177 L110.421736,17.8177 C108.979736,19.6827 106.364736,21.5667 103.900736,22.4797" id="Fill-13" fill="#000000"></path>
                <path d="M52.7566355,26.0695 C53.1766355,24.9205 53.2336355,22.3465 53.2336355,19.9395 L53.2336355,19.0755 L50.5686355,19.0755 L51.1086355,10.8765 L42.4056355,10.8765 L42.4056355,12.7375 L48.9786355,12.7375 L48.5686355,19.0755 L45.1656355,19.0755 L45.5436355,13.7435 L43.6316355,13.7435 L43.1096355,20.9365 L51.2346355,20.9365 C51.2106355,23.3185 51.0926355,24.7235 50.8836355,25.2955 C50.5856355,26.1105 50.0626355,27.0195 48.0626355,27.0195 L44.9456355,27.0195 L44.9456355,28.9255 L48.1516355,28.9255 C50.5796355,28.9255 52.0436355,28.0175 52.7566355,26.0695" id="Fill-15" fill="#000000"></path>
                <path d="M35.5170355,21.546 L36.6190355,21.546 L36.6190355,14.754 L35.5170355,14.754 L35.5170355,21.546 Z M38.6140355,14.754 L39.8040355,14.754 L39.8040355,21.268 C39.8040355,21.421 39.6800355,21.546 39.5270355,21.546 L38.6140355,21.546 L38.6140355,14.754 Z M42.1980355,27.3 L42.1980355,24.924 L49.0900355,24.924 L49.0900355,22.93 L42.1950355,22.93 L42.1950355,24.894 L40.2030355,24.894 L40.2030355,26.64 C40.2030355,26.752 40.1120355,26.842 40.0000355,26.842 L38.6140355,26.842 L38.6140355,23.496 L39.5270355,23.496 C40.8980355,23.496 41.7990355,22.595 41.7990355,21.224 L41.7990355,12.804 L38.6140355,12.804 L38.6140355,10.146 L36.6190355,10.146 L36.6190355,12.804 L33.5230355,12.804 L33.5230355,23.496 L36.6190355,23.496 L36.6190355,26.842 L33.4830355,26.842 L33.4830355,28.925 L40.5720355,28.925 C41.5860355,28.925 42.1980355,28.315 42.1980355,27.3 L42.1980355,27.3 Z" id="Fill-17" fill="#000000"></path>
                <path d="M69.3181355,16.0314 L70.9551355,15.8224 C70.9351355,12.9134 70.5371355,10.1224 70.5201355,10.0024 L68.5461355,10.2884 C68.5471355,10.2924 68.5581355,10.3734 68.5761355,10.5064 C68.6931355,11.1074 69.1431355,13.5104 69.3181355,16.0314" id="Fill-19" fill="#000000"></path>
                <path d="M57.9360355,21.546 L59.0390355,21.546 L59.0390355,14.754 L57.9360355,14.754 L57.9360355,21.546 Z M61.0330355,14.754 L62.2240355,14.754 L62.2240355,21.268 C62.2240355,21.421 62.1000355,21.546 61.9470355,21.546 L61.0330355,21.546 L61.0330355,14.754 Z M76.0890355,27.755 C74.2670355,26.226 72.6840355,24.785 71.3630355,23.274 C72.0430355,22.37 72.6470355,21.428 73.1680355,20.417 C74.5200355,17.794 74.6340355,14.987 74.6340355,12.337 L72.5500355,12.337 C72.5500355,14.731 72.4550355,17.254 71.3170355,19.462 C70.9360355,20.2 70.5030355,20.901 70.0210355,21.579 C69.5390355,20.901 69.1050355,20.2 68.7250355,19.462 C67.5870355,17.254 67.4910355,14.731 67.4910355,12.337 L65.4080355,12.337 C65.4080355,14.871 65.5220355,17.794 66.8730355,20.417 C67.3950355,21.428 67.9990355,22.37 68.6790355,23.274 C67.5210355,24.597 66.1610355,25.868 64.6170355,27.192 L64.6170355,26.976 L64.6170355,24.894 L62.6230355,24.894 L62.6230355,26.64 C62.6230355,26.752 62.5320355,26.842 62.4200355,26.842 L61.0330355,26.842 L61.0330355,23.496 L61.9470355,23.496 C63.3180355,23.496 64.2190355,22.595 64.2190355,21.224 L64.2190355,12.804 L61.0330355,12.804 L61.0330355,10.146 L59.0390355,10.146 L59.0390355,12.804 L55.9430355,12.804 L55.9430355,23.496 L59.0390355,23.496 L59.0390355,26.842 L55.9030355,26.842 L55.9030355,28.925 L62.9910355,28.925 C63.6280355,28.925 64.1050355,28.685 64.3730355,28.255 L65.2920355,29.35 C67.0890355,27.842 68.6700355,26.406 70.0210355,24.9 C71.3720355,26.406 72.9520355,27.842 74.7500355,29.35 L76.0890355,27.755 Z" id="Fill-20" fill="#000000"></path>
                <path d="M38.8308355,41.2341 C37.8858355,41.2341 36.7758355,41.3931 36.1118355,41.6151 C36.8988355,39.1961 38.1808355,36.2111 38.4008355,35.7161 C38.4648355,35.5731 38.5288355,35.5291 38.5958355,35.5291 C38.6588355,35.5291 38.7228355,35.5661 38.7778355,35.6881 C39.0148355,36.2111 40.2968355,39.1961 41.0478355,41.4391 C40.5278355,41.3581 39.8148355,41.2341 38.8308355,41.2341 L38.8308355,41.2341 Z M37.0918355,33.6741 C35.2238355,37.6211 33.6218355,41.9101 32.2818355,46.4501 C32.2818355,46.4501 32.7378355,46.5611 33.4298355,46.5611 C34.0848355,46.5611 34.5458355,46.4501 34.5498355,46.4491 C34.9688355,44.9651 35.6438355,42.9631 35.6438355,42.9631 C35.6438355,42.9631 37.4068355,42.7551 38.5878355,42.8561 C39.9768355,42.9731 40.6898355,43.1691 41.3508355,43.4631 C41.6388355,43.5911 41.7908355,43.6831 41.8678355,43.9181 C42.0228355,44.3951 42.2988355,45.3061 42.6248355,46.4471 C42.6248355,46.4471 43.1008355,46.5611 43.7668355,46.5611 C44.4558355,46.5611 44.8908355,46.4541 44.8898373,46.4511 C43.5798355,41.9101 41.9928355,37.6211 40.0928355,33.6741 L37.0918355,33.6741 Z" id="Fill-21" fill="#000000"></path>
                <path d="M108.308436,44.5143 C105.876436,44.5143 103.904436,42.5423 103.904436,40.1103 C103.904436,37.6783 105.876436,35.7063 108.308436,35.7063 C110.741436,35.7063 112.712436,37.6783 112.712436,40.1103 C112.712436,42.5423 110.741436,44.5143 108.308436,44.5143 M108.308436,33.4963 C104.655436,33.4963 101.694436,36.4573 101.694436,40.1103 C101.694436,43.7633 104.655436,46.7233 108.308436,46.7233 C111.960436,46.7233 114.921436,43.7633 114.921436,40.1103 C114.921436,36.4573 111.960436,33.4963 108.308436,33.4963" id="Fill-22" fill="#000000"></path>
                <path d="M94.7005355,39.7301 L91.7825355,39.7301 L91.7825355,35.5941 L95.0955355,35.5941 C97.0135355,35.5941 97.9085355,35.9701 97.9085355,37.5311 C97.9085355,39.1901 96.6195355,39.7301 94.7005355,39.7301 M97.7225355,42.0201 C97.0545355,41.4911 96.4645355,41.3901 96.4835355,41.2591 C96.4985355,41.1471 96.8125355,41.1971 97.3705355,41.0301 C99.0995355,40.5301 100.124536,39.2321 100.124536,37.5311 C100.124536,34.5381 98.0525355,33.7231 95.0585355,33.7231 L89.5615355,33.7231 L89.5615355,46.4621 C89.5615355,46.4621 90.0185355,46.5731 90.6725355,46.5731 C91.3155355,46.5731 91.7805355,46.4631 91.7825355,46.4621 L91.7825355,41.6261 L93.2115355,41.6261 C94.2305355,41.6271 94.9965355,41.7551 95.5455355,42.1711 C96.1355355,42.6191 96.6025355,43.2321 97.2215355,44.1971 C97.5825355,44.7621 98.4825355,46.4601 98.4845355,46.4641 C98.4845355,46.4641 99.0155355,46.5731 99.7845355,46.5731 C100.542536,46.5731 101.053536,46.4001 101.053536,46.4001 C99.6045355,44.0911 98.8255355,42.8911 97.7225355,42.0201" id="Fill-23" fill="#000000"></path>
                <path d="M125.465636,33.7394 L125.465636,41.2974 C125.465636,43.3454 124.254636,44.6424 122.252636,44.6424 C120.250636,44.6424 119.038636,43.3454 119.038636,41.2974 L119.038636,33.7394 C119.037636,33.7394 118.578636,33.6284 117.921636,33.6284 C117.273636,33.6284 116.811636,33.7394 116.811636,33.7394 L116.811636,41.3734 C116.811636,45.0944 119.198636,46.7234 122.252636,46.7234 C125.306636,46.7234 127.693636,45.0944 127.693636,41.3734 L127.693636,33.7394 C127.693636,33.7394 127.230636,33.6284 126.583636,33.6284 C125.925636,33.6284 125.466636,33.7394 125.465636,33.7394" id="Fill-24" fill="#000000"></path>
                <path d="M135.576536,40.3561 L132.509536,40.3561 L132.509536,35.7261 L135.576536,35.7261 C137.495536,35.7261 138.321536,36.3571 138.321536,38.0511 C138.321536,39.7441 137.292536,40.3561 135.576536,40.3561 M135.949536,33.7391 L130.273536,33.7391 L130.273536,46.4561 C130.274536,46.4561 130.733536,46.5671 131.391536,46.5671 C132.038536,46.5671 132.507536,46.4561 132.509536,46.4561 L132.509536,42.3421 L136.025536,42.3421 C138.665536,42.3421 140.446536,40.6361 140.446536,37.9921 C140.446536,35.3481 138.690536,33.7391 135.949536,33.7391" id="Fill-25" fill="#000000"></path>
                <path d="M81.1756355,35.5334 C82.9686355,35.5334 84.3156355,36.1894 85.4296355,37.7284 L87.0706355,36.5214 C85.5976355,34.4894 83.9916355,33.4964 80.9966355,33.4964 C77.3406355,33.4964 74.5176355,36.3184 74.5176355,40.1374 C74.5176355,43.9754 77.2296355,46.7234 80.5886355,46.7234 C81.5336355,46.7234 82.3916355,46.5174 83.1126355,46.2144 C83.7706355,45.9474 84.1416355,45.7444 84.5676355,45.4554 C84.7446355,45.3344 84.9516355,45.1924 85.0856355,45.2414 C85.1986355,45.2824 85.2076355,45.4064 85.2076355,45.5434 C85.2076355,45.9484 85.2106355,46.4314 85.2106355,46.4314 C85.2106355,46.4314 85.5586355,46.5424 86.0586355,46.5424 C86.5446355,46.5424 86.9046355,46.4024 86.9046355,46.4024 L86.9026355,39.6104 L81.1966355,39.6104 L81.1966355,41.4244 L84.9446355,41.4244 C84.9346355,42.7844 83.7036355,44.6874 80.8926355,44.6874 C78.2386355,44.6874 76.6866355,42.5794 76.6866355,40.1374 C76.6866355,37.3794 78.8626355,35.5334 81.1756355,35.5334" id="Fill-26" fill="#000000"></path>
                <path d="M55.1985355,33.7072 L55.1985355,42.9452 C53.0115355,39.4252 50.8225355,36.2382 48.6895355,33.7072 C48.6895355,33.7072 48.2385355,33.5962 47.5935355,33.5962 C46.9595355,33.5962 46.5005355,33.7072 46.4975355,33.7072 L46.4985355,46.4492 C46.5005355,46.4502 46.9475355,46.5602 47.5885355,46.5602 C48.2185355,46.5602 48.6745355,46.4502 48.6775355,46.4492 L48.6775355,36.5772 C51.0075355,39.7832 53.1955355,43.0882 55.1605355,46.4492 C55.1605355,46.4492 55.6215355,46.5602 56.2715355,46.5602 C56.9115355,46.5602 57.3785355,46.4492 57.3785355,46.4492 L57.3785355,33.7072 C57.3775355,33.7072 56.9305355,33.5962 56.2885355,33.5962 C55.6575355,33.5962 55.1985355,33.7072 55.1985355,33.7072" id="Fill-27" fill="#000000"></path>
                <path d="M59.2718355,35.7712 L63.8928355,35.7712 L63.8928355,46.4492 C63.8948355,46.4492 64.3798355,46.5602 65.0768355,46.5602 C65.7618355,46.5602 66.2578355,46.4502 66.2598355,46.4492 L66.2598355,35.7712 L70.8808355,35.7712 L70.8808355,33.7172 L59.2718355,33.7172 L59.2718355,35.7712 Z" id="Fill-28" fill="#000000"></path>
                <polygon id="Fill-29" fill="#424242" points="159.730036 48.191 160.230036 48.191 160.230036 0 159.730036 0"></polygon>
                <path d="M196.499336,20.7326 C196.848336,23.7496 197.543336,26.2146 198.617336,28.4196 C199.748336,26.0696 200.357336,23.3726 200.734336,19.9206 L196.848336,19.9206 L196.499336,20.7326 Z M193.628336,14.5536 C192.932336,15.8016 191.684336,17.5416 190.930336,18.4406 L189.044336,17.1066 C189.770336,16.2366 190.988336,14.4966 191.684336,13.2486 L193.628336,14.5536 Z M184.896336,31.6686 L187.739336,32.9736 C188.754336,32.1616 189.393336,31.2916 189.886336,30.2176 L185.622336,30.2176 L184.896336,31.6686 Z M183.388336,18.2666 C182.837336,17.2226 181.734336,15.5116 180.951336,14.4966 L182.691336,13.2196 C183.359336,14.0606 184.577336,15.6856 185.273336,16.9326 L183.388336,18.2666 Z M179.646336,24.9386 C181.734336,23.8076 183.649336,22.4726 185.129336,20.9936 L180.343336,20.9936 L180.343336,18.5866 L185.940336,18.5866 L185.940336,12.7556 L188.493336,12.8716 L188.493336,18.5866 L193.425336,18.5866 L193.425336,20.9936 L188.493336,20.9936 L188.493336,22.3576 L189.363336,21.2546 C190.379336,21.9506 192.148336,23.4006 193.395336,24.5616 L191.916336,26.5336 C190.988336,25.5186 189.479336,24.2716 188.493336,23.5176 L188.493336,25.9826 L185.940336,25.9826 L185.940336,23.2556 C184.520336,24.7356 182.808336,26.0986 180.777336,27.2886 L179.646336,24.9386 Z M205.840336,36.7736 L204.099336,39.2106 C201.865336,37.3246 200.067336,35.4676 198.675336,33.5826 C197.195336,35.4396 195.281336,37.1796 192.815336,39.1236 L191.394336,37.1506 L191.133336,37.6726 C190.117336,37.1216 189.044336,36.5126 187.884336,35.9026 C186.144336,37.0636 183.823336,38.1366 180.661336,39.1806 L179.501336,36.6576 C181.937336,35.9326 183.736336,35.2356 185.216336,34.5396 C183.853336,33.8436 182.547336,33.1766 181.300336,32.5966 C181.764336,31.8136 182.170336,31.0296 182.604336,30.2176 L180.227336,30.2176 L180.227336,27.8686 L183.766336,27.8686 C184.084336,27.0856 184.374336,26.4186 184.577336,25.8086 L187.187336,26.5336 L186.666336,27.8686 L192.757336,27.8686 L192.757336,30.1016 C192.090336,31.5816 191.307336,32.9156 190.117336,34.1046 C190.813336,34.4816 191.597336,34.8296 192.380336,35.2646 L191.945336,36.0776 C194.149336,34.4816 195.774336,32.9156 197.051336,31.0876 C195.919336,29.0286 195.106336,26.8236 194.613336,24.4746 L194.236336,25.1416 L192.206336,23.1696 C194.062336,20.2976 195.658336,15.8306 196.354336,12.5236 L199.022336,13.0166 C198.732336,14.2936 198.355336,15.6276 197.921336,17.0486 L205.230336,17.0486 L205.230336,19.9206 L203.345336,19.9206 C202.881336,24.7646 202.039336,28.1876 200.299336,31.2046 C201.721336,33.1766 203.519336,34.9176 205.840336,36.7736 L205.840336,36.7736 Z" id="Fill-30" fill="#232323"></path>
                <path d="M212.678036,22.1828 L209.748036,22.1828 L209.748036,15.6268 L219.930036,15.6268 C219.668036,14.6118 219.437036,13.7128 219.117036,12.7848 L222.337036,12.2918 C222.685036,13.3648 222.888036,14.2348 223.324036,15.6268 L232.866036,15.6268 L232.866036,22.2118 L229.908036,22.2118 L229.908036,18.4118 L212.678036,18.4118 L212.678036,22.1828 Z M233.940036,30.7978 L222.917036,30.7978 L222.917036,34.7428 C222.917036,37.8178 222.280036,38.3688 219.321036,38.6008 L216.942036,38.7748 L216.042036,35.9328 L218.305036,35.7578 C219.727036,35.6418 219.988036,35.2938 219.988036,33.9308 L219.988036,30.7978 L208.646036,30.7978 L208.646036,28.0138 L219.988036,28.0138 L219.988036,26.5048 L224.513036,23.6908 L213.345036,23.6908 L213.345036,20.9648 L229.531036,20.9648 L229.531036,23.7788 L222.917036,27.7818 L222.917036,28.0138 L233.940036,28.0138 L233.940036,30.7978 Z" id="Fill-31" fill="#232323"></path>
                <path d="M253.541336,21.2839 C252.236336,19.9209 249.944336,17.7449 248.697336,16.8169 L250.437336,14.7279 C251.830336,15.8299 254.005336,17.8319 255.340336,19.0789 L253.541336,21.2839 Z M249.567336,21.6029 C250.960336,22.6759 253.193336,24.5039 254.586336,25.8959 L252.758336,28.1869 C251.365336,26.8819 249.074336,24.8229 247.827336,23.8069 L249.567336,21.6029 Z M258.850336,31.4649 L258.850336,38.7169 L256.036336,38.7169 L256.036336,31.7549 L246.695336,32.7129 L246.492336,30.0439 L246.231336,30.3339 C245.651336,29.5509 244.811336,28.4769 244.027336,27.5779 L244.027336,38.8039 L241.445336,38.8039 L241.445336,28.1589 C240.372336,30.3629 239.153336,32.3929 238.022336,33.9889 L236.137336,31.8429 C237.878336,29.4349 239.792336,26.3019 241.098336,23.1979 L237.472336,23.1979 L237.472336,20.4429 L241.445336,20.4429 L241.445336,17.2809 C240.140336,17.5129 238.863336,17.7159 237.819336,17.8609 L237.559336,15.1919 C240.343336,14.8729 244.607336,14.0029 247.392336,13.2199 L247.914336,15.8599 C246.782336,16.1789 245.448336,16.4689 244.027336,16.7879 L244.027336,20.4429 L247.652336,20.4429 L247.652336,23.1979 L244.027336,23.1979 L244.027336,25.2579 L244.723336,24.6189 C245.564336,25.4609 247.102336,27.2009 248.030336,28.4199 L246.695336,29.8409 L256.036336,28.8839 L256.036336,12.6109 L258.850336,12.7269 L258.850336,28.5649 L262.562336,28.1869 L262.736336,31.0589 L258.850336,31.4649 Z" id="Fill-32" fill="#232323"></path>
                <path d="M278.916336,25.2575 C279.844336,27.4625 280.801336,29.2895 282.164336,30.8265 C283.905336,29.2025 285.065336,27.4625 285.849336,25.2575 L278.916336,25.2575 Z M290.258336,39.5875 C286.863336,37.9915 284.253336,36.5995 282.136336,34.7725 C280.047336,36.3095 277.437336,37.7015 273.840336,39.3255 L272.389336,36.2805 C275.521336,35.0325 277.958336,33.8725 279.931336,32.5675 C278.567336,30.9715 277.407336,28.9995 276.421336,26.5915 L278.857336,25.2575 L275.231336,25.2575 L275.231336,22.4725 L280.830336,22.4725 L280.830336,18.9635 L275.203336,18.9635 L275.203336,16.2075 L280.830336,16.2075 L280.830336,12.4075 L283.760336,12.5235 L283.760336,16.2075 L290.373336,16.2075 L290.373336,18.9635 L283.760336,18.9635 L283.760336,22.4725 L288.952336,22.4725 L288.952336,25.3445 C287.705336,28.4775 286.429336,30.8265 284.369336,32.8865 C286.139336,34.2495 288.313336,35.3525 291.302336,36.3675 L290.258336,39.5875 Z M275.058336,26.5055 C274.274336,26.8235 273.259336,27.2305 272.099336,27.6655 L272.099336,35.5555 C272.099336,38.0205 271.315336,38.3405 268.792336,38.6585 L267.516336,38.8035 L266.616336,35.7575 L267.922336,35.6425 C268.966336,35.5555 269.198336,35.4105 269.198336,34.3365 L269.198336,28.7095 C267.806336,29.2025 266.501336,29.6375 265.688336,29.8695 L264.848336,26.7365 C265.862336,26.4185 267.487336,25.9245 269.198336,25.3445 L269.198336,20.4135 L266.152336,20.4135 L266.152336,17.3965 L269.198336,17.3965 L269.198336,12.5815 L272.099336,12.6975 L272.099336,17.3965 L274.594336,17.3965 L274.594336,20.4135 L272.099336,20.4135 L272.099336,24.3005 L274.187336,23.4885 L275.058336,26.5055 Z" id="Fill-33" fill="#232323"></path>
            </g>
        </g>
    </g>
</svg>