<?xml version="1.0" encoding="UTF-8"?>
<svg width="416px" height="166px" viewBox="0 0 416 166" version="1.1" xmlns="http://www.w3.org/2000/svg" xmlns:xlink="http://www.w3.org/1999/xlink">
    <title>数字科技集团联标-中文-反白</title>
    <defs>
        <polygon id="path-1" points="-1.77635684e-15 0 39.056121 0 39.056121 51.074 -1.77635684e-15 51.074"></polygon>
        <polygon id="path-3" points="0 51.074 305.253 51.074 305.253 0 0 0"></polygon>
    </defs>
    <g id="数字科技集团联标-中文-反白" stroke="none" stroke-width="1" fill="none" fill-rule="evenodd">
        <rect id="矩形" fill="#1677FF" x="-0.5" y="-0.382938167" width="416.5" height="166.382938"></rect>
        <g id="编组" transform="translate(54.873500, 57.080062)">
            <g transform="translate(0.000371, 0.000000)">
                <mask id="mask-2" fill="white">
                    <use xlink:href="#path-1"></use>
                </mask>
                <g id="Clip-2"></g>
                <path d="M26.9216294,42.2241219 C20.4026294,42.193 14.6286294,36.289 14.0056294,29.04 C13.3826294,21.792 18.1426294,15.911 24.6546294,15.9009897 C31.1866294,15.892 37.0066294,21.791 37.6366294,29.078 C38.2656294,36.369 33.4606294,42.255 26.9216294,42.2241219 M36.5646294,22.051 C34.9586294,19.2 32.6306294,16.772 29.8536294,15.042 C28.0266294,13.905 26.0176294,13.084 23.9276294,12.601 C24.4336294,10.371 25.1126294,7.912 26.7286294,6.353 C27.7796294,5.34 29.2086294,4.624 29.7996294,3.215 C30.5006294,1.545 29.6616294,-0.424 27.6456294,0.08 C26.4646294,0.375 25.4446294,1.21 24.7406294,2.182 C23.7626294,3.535 23.2296294,5.132 22.8496294,6.74 C22.4216294,8.558 22.1136294,10.396 21.7876294,12.231 C21.3186294,12.176 20.8486294,12.135 20.3766294,12.115 C19.8386294,12.092 19.2976294,12.113 18.7676294,12.093 C18.0646294,12.066 17.3776294,11.967 16.7296294,11.596 C16.1176294,11.247 15.3116294,10.624 14.5536294,10.888 C13.7216294,11.178 13.4006294,12.333 12.7546294,12.898 C11.9106294,13.637 10.8976294,14.068 9.93662936,14.615 C9.49462936,13.366 9.19262936,12.03 9.23062936,10.724 C9.29362936,8.528 10.5016294,5.606 8.90662936,3.699 C8.23462936,2.894 7.03662936,2.776 6.22462936,3.441 C5.80462936,3.784 5.52262936,4.269 5.34262936,4.803 C5.11862936,5.469 5.05162936,6.21 5.07462936,6.847 C5.08462936,7.11 5.10262936,7.373 5.12862936,7.636 C5.15762936,7.926 5.19562936,8.215 5.24262936,8.502 C5.50462936,10.1 6.03762936,11.64 6.66762936,13.127 C7.06362936,14.063 7.48862936,15.002 7.93462936,15.928 C7.68262936,16.113 7.42562936,16.292 7.18162936,16.491 C5.59262936,17.786 4.20862936,19.332 3.09662936,21.055 C0.939629363,24.398 -0.140370637,28.37 0.0146293626,32.345 C0.446629363,43.405 10.0336294,51.952 21.2096294,51.002 C31.1886294,50.154 38.9856294,41.741 39.0556294,31.746 C39.0796294,28.364 38.2246294,25 36.5646294,22.051" id="Fill-1" fill="#FFFFFF" mask="url(#mask-2)"></path>
            </g>
            <path d="M33.0821,20.5893 C30.9341,18.4223 28.2301,17.2293 25.4811,17.2263 C25.3841,17.2263 25.2861,17.2283 25.1891,17.2313 C22.6861,17.3053 20.3971,18.3773 18.7121,20.2573 C16.7071,22.4943 15.7581,25.6763 16.0941,28.9923 C16.4111,32.1253 17.8011,35.0273 20.0131,37.1793 C22.2191,39.3253 24.9691,40.4613 27.7661,40.3753 C30.2511,40.2983 32.5481,39.2243 34.2291,37.3413 C36.2071,35.1283 37.1721,31.9793 36.8651,28.7093 C36.5771,25.6463 35.2321,22.7583 33.0821,20.5893" id="Fill-3" fill="#FFFFFF"></path>
            <path d="M101.0382,17.7362 L95.5262,17.7362 L95.5262,16.9572 C95.5592,16.9202 95.5892,16.8832 95.6212,16.8462 L101.0382,16.8462 L101.0382,17.7362 Z M95.5262,20.3992 L101.0382,20.3992 L101.0382,19.4642 L95.5262,19.4642 L95.5262,20.3992 Z M101.0382,22.9742 L95.9032,22.9742 C95.5772,22.9742 95.5262,22.9232 95.5262,22.5972 L95.5262,22.1282 L101.0382,22.1282 L101.0382,22.9742 Z M110.5462,31.8862 L110.9052,30.0142 C108.3712,29.5282 106.8792,28.4542 106.0422,27.5692 L110.9682,27.5692 L110.9682,25.7082 L102.6792,25.7082 L102.6792,24.7472 L110.3372,24.7472 L110.3372,22.9742 L103.0332,22.9742 L103.0332,22.1282 L109.8382,22.1282 L109.8382,20.3992 L103.0332,20.3992 L103.0332,19.4652 L109.8382,19.4652 L109.8382,17.7362 L103.0332,17.7362 L103.0332,16.8462 L110.3372,16.8462 L110.3372,15.0732 L103.3012,15.0732 C103.7442,14.7942 104.1052,14.4402 104.3642,14.0462 C104.5842,13.6972 104.7012,13.4852 104.7122,13.4652 L102.9612,12.5092 C102.9572,12.5162 102.7922,12.8402 102.3072,13.5412 C101.3992,14.8042 100.6032,15.0732 99.2232,15.0732 L97.0152,15.0732 C97.6762,14.1462 98.0222,13.5222 98.0532,13.4652 L96.3032,12.5092 C96.2862,12.5392 94.6202,15.5412 91.3482,18.2812 L92.6282,19.8102 C92.9612,19.5312 93.2742,19.2502 93.5762,18.9702 L93.5762,22.8632 C93.5762,24.1402 94.1832,24.7482 95.4602,24.7482 L100.6842,24.7472 L100.6842,25.7082 L92.3942,25.7082 L92.3942,27.5692 L97.3212,27.5692 C96.4832,28.4542 94.9922,29.5282 92.4572,30.0142 L92.8162,31.8862 C97.1002,31.0652 98.9982,28.7372 99.7012,27.5692 L100.6842,27.5692 L100.6842,32.0842 L102.6792,32.0842 L102.6792,27.5692 L103.6612,27.5692 C104.3642,28.7372 106.2622,31.0652 110.5462,31.8862 L110.5462,31.8862 Z" id="Fill-5" fill="#FFFFFF"></path>
            <path d="M130.797,28.5248 C130.797,29.5098 130.21,30.0968 129.225,30.0968 L116.726,30.0968 L116.726,15.5078 L130.797,15.5078 L130.797,28.5248 Z M132.791,28.5248 L132.791,13.5138 L114.732,13.5138 L114.732,32.0908 L129.225,32.0908 C131.546,32.0908 132.791,30.8458 132.791,28.5248 L132.791,28.5248 Z" id="Fill-7" fill="#FFFFFF"></path>
            <path d="M117.8517,25.3427 L118.5447,27.2127 C121.4577,26.1337 124.2927,24.0017 125.9247,21.7757 L125.9247,25.5507 C125.9247,26.3277 125.2457,26.9597 124.4097,26.9597 L122.6187,26.9597 L122.6187,28.8657 L124.5867,28.8657 C126.5227,28.8657 127.9197,27.5157 127.9197,25.6397 L127.9197,20.6807 L129.3667,20.6807 L129.3667,18.7747 L127.9197,18.7747 L127.9197,16.7257 L125.9247,16.7257 L125.9247,18.7747 L118.1977,18.7747 L118.1977,20.6807 L124.3727,20.6807 C122.9307,22.5457 120.3157,24.4297 117.8517,25.3427" id="Fill-9" fill="#FFFFFF"></path>
            <path d="M66.7076,28.9325 C67.1276,27.7835 67.1846,25.2095 67.1846,22.8025 L67.1846,21.9385 L64.5196,21.9385 L65.0596,13.7395 L56.3566,13.7395 L56.3566,15.6005 L62.9296,15.6005 L62.5196,21.9385 L59.1166,21.9385 L59.4946,16.6055 L57.5826,16.6055 L57.0606,23.7995 L65.1856,23.7995 C65.1616,26.1815 65.0436,27.5865 64.8346,28.1585 C64.5366,28.9735 64.0136,29.8825 62.0136,29.8825 L58.8966,29.8825 L58.8966,31.7875 L62.1026,31.7875 C64.5306,31.7875 65.9946,30.8805 66.7076,28.9325" id="Fill-11" fill="#FFFFFF"></path>
            <mask id="mask-4" fill="white">
                <use xlink:href="#path-3"></use>
            </mask>
            <g id="Clip-14"></g>
            <path d="M49.468,24.409 L50.57,24.409 L50.57,17.617 L49.468,17.617 L49.468,24.409 Z M52.565,17.617 L53.755,17.617 L53.755,24.131 C53.755,24.284 53.631,24.409 53.478,24.409 L52.565,24.409 L52.565,17.617 Z M56.149,30.163 L56.149,27.787 L63.041,27.787 L63.041,25.793 L56.146,25.793 L56.146,27.757 L54.154,27.757 L54.154,29.503 C54.154,29.615 54.063,29.705 53.951,29.705 L52.565,29.705 L52.565,26.359 L53.478,26.359 C54.849,26.359 55.75,25.458 55.75,24.087 L55.75,15.667 L52.565,15.667 L52.565,13.009 L50.57,13.009 L50.57,15.667 L47.474,15.667 L47.474,26.359 L50.57,26.359 L50.57,29.705 L47.434,29.705 L47.434,31.788 L54.523,31.788 C55.537,31.788 56.149,31.177 56.149,30.163 L56.149,30.163 Z" id="Fill-13" fill="#FFFFFF" mask="url(#mask-4)"></path>
            <path d="M83.2691,18.8944 L84.9061,18.6854 C84.8861,15.7764 84.4881,12.9854 84.4711,12.8654 L82.4971,13.1514 C82.4981,13.1554 82.5091,13.2364 82.5271,13.3694 C82.6441,13.9704 83.0941,16.3734 83.2691,18.8944" id="Fill-15" fill="#FFFFFF" mask="url(#mask-4)"></path>
            <path d="M71.887,24.409 L72.99,24.409 L72.99,17.617 L71.887,17.617 L71.887,24.409 Z M74.984,17.617 L76.175,17.617 L76.175,24.131 C76.175,24.284 76.051,24.409 75.898,24.409 L74.984,24.409 L74.984,17.617 Z M90.04,30.618 C88.218,29.089 86.635,27.647 85.314,26.137 C85.994,25.233 86.598,24.291 87.119,23.28 C88.471,20.657 88.585,17.85 88.585,15.2 L86.501,15.2 C86.501,17.594 86.406,20.117 85.268,22.325 C84.887,23.063 84.454,23.764 83.972,24.442 C83.49,23.764 83.056,23.063 82.676,22.325 C81.538,20.117 81.442,17.594 81.442,15.2 L79.359,15.2 C79.359,17.734 79.473,20.657 80.824,23.28 C81.346,24.291 81.95,25.233 82.63,26.137 C81.472,27.46 80.112,28.731 78.568,30.055 L78.568,29.839 L78.568,27.757 L76.574,27.757 L76.574,29.503 C76.574,29.615 76.483,29.705 76.371,29.705 L74.984,29.705 L74.984,26.359 L75.898,26.359 C77.269,26.359 78.17,25.458 78.17,24.087 L78.17,15.667 L74.984,15.667 L74.984,13.009 L72.99,13.009 L72.99,15.667 L69.894,15.667 L69.894,26.359 L72.99,26.359 L72.99,29.705 L69.854,29.705 L69.854,31.788 L76.942,31.788 C77.579,31.788 78.056,31.548 78.324,31.118 L79.243,32.213 C81.04,30.705 82.621,29.269 83.972,27.763 C85.323,29.269 86.903,30.705 88.701,32.213 L90.04,30.618 Z" id="Fill-16" fill="#FFFFFF" mask="url(#mask-4)"></path>
            <path d="M52.7818,44.0971 C51.8368,44.0971 50.7268,44.2561 50.0628,44.4781 C50.8498,42.0591 52.1318,39.0741 52.3518,38.5791 C52.4158,38.4361 52.4798,38.3921 52.5468,38.3921 C52.6098,38.3921 52.6738,38.4291 52.7288,38.5511 C52.9658,39.0741 54.2478,42.0591 54.9988,44.3021 C54.4788,44.2211 53.7658,44.0971 52.7818,44.0971 L52.7818,44.0971 Z M51.0428,36.5371 C49.1748,40.4841 47.5728,44.7731 46.2328,49.3131 C46.2328,49.3131 46.6888,49.4241 47.3808,49.4241 C48.0358,49.4241 48.4968,49.3131 48.5008,49.3121 C48.9198,47.8281 49.5948,45.8261 49.5948,45.8261 C49.5948,45.8261 51.3578,45.6181 52.5388,45.7191 C53.9278,45.8361 54.6408,46.0311 55.3018,46.3261 C55.5898,46.4541 55.7418,46.5461 55.8188,46.7811 C55.9738,47.2581 56.2498,48.1691 56.5758,49.3101 C56.5758,49.3101 57.0518,49.4241 57.7178,49.4241 C58.4068,49.4241 58.8418,49.3171 58.8408017,49.3141 C57.5308,44.7731 55.9438,40.4841 54.0438,36.5371 L51.0428,36.5371 Z" id="Fill-17" fill="#FFFFFF" mask="url(#mask-4)"></path>
            <path d="M122.2594,47.3769 C119.8274,47.3769 117.8554,45.4049 117.8554,42.9729 C117.8554,40.5409 119.8274,38.5689 122.2594,38.5689 C124.6924,38.5689 126.6634,40.5409 126.6634,42.9729 C126.6634,45.4049 124.6924,47.3769 122.2594,47.3769 M122.2594,36.3599 C118.6064,36.3599 115.6454,39.3209 115.6454,42.9729 C115.6454,46.6259 118.6064,49.5859 122.2594,49.5859 C125.9114,49.5859 128.8724,46.6259 128.8724,42.9729 C128.8724,39.3209 125.9114,36.3599 122.2594,36.3599" id="Fill-18" fill="#FFFFFF" mask="url(#mask-4)"></path>
            <path d="M108.6515,42.5932 L105.7335,42.5932 L105.7335,38.4572 L109.0465,38.4572 C110.9645,38.4572 111.8595,38.8332 111.8595,40.3942 C111.8595,42.0532 110.5705,42.5932 108.6515,42.5932 M111.6735,44.8832 C111.0055,44.3542 110.4155,44.2532 110.4345,44.1222 C110.4495,44.0102 110.7635,44.0602 111.3215,43.8932 C113.0505,43.3932 114.0755,42.0952 114.0755,40.3942 C114.0755,37.4012 112.0035,36.5862 109.0095,36.5862 L103.5125,36.5862 L103.5125,49.3252 C103.5125,49.3252 103.9695,49.4362 104.6235,49.4362 C105.2665,49.4362 105.7315,49.3252 105.7335,49.3252 L105.7335,44.4892 L107.1625,44.4892 C108.1815,44.4902 108.9475,44.6182 109.4965,45.0342 C110.0865,45.4822 110.5535,46.0952 111.1725,47.0602 C111.5335,47.6252 112.4335,49.3232 112.4355,49.3272 C112.4355,49.3272 112.9665,49.4362 113.7355,49.4362 C114.4935,49.4362 115.0045,49.2632 115.0045,49.2632 C113.5555,46.9542 112.7765,45.7542 111.6735,44.8832" id="Fill-19" fill="#FFFFFF" mask="url(#mask-4)"></path>
            <path d="M139.4166,36.6024 L139.4166,44.1604 C139.4166,46.2084 138.2056,47.5054 136.2036,47.5054 C134.2016,47.5054 132.9896,46.2084 132.9896,44.1604 L132.9896,36.6024 C132.9886,36.6024 132.5296,36.4914 131.8726,36.4914 C131.2246,36.4914 130.7626,36.6024 130.7626,36.6024 L130.7626,44.2364 C130.7626,47.9574 133.1496,49.5864 136.2036,49.5864 C139.2576,49.5864 141.6446,47.9574 141.6446,44.2364 L141.6446,36.6024 C141.6446,36.6024 141.1816,36.4914 140.5346,36.4914 C139.8766,36.4914 139.4176,36.6024 139.4166,36.6024" id="Fill-20" fill="#FFFFFF" mask="url(#mask-4)"></path>
            <path d="M149.5274,43.2191 L146.4604,43.2191 L146.4604,38.5891 L149.5274,38.5891 C151.4464,38.5891 152.2724,39.2201 152.2724,40.9141 C152.2724,42.6071 151.2434,43.2191 149.5274,43.2191 M149.9004,36.6021 L144.2244,36.6021 L144.2244,49.3191 C144.2254,49.3191 144.6844,49.4291 145.3424,49.4291 C145.9894,49.4291 146.4584,49.3191 146.4604,49.3191 L146.4604,45.2051 L149.9764,45.2051 C152.6164,45.2051 154.3974,43.4991 154.3974,40.8551 C154.3974,38.2111 152.6414,36.6021 149.9004,36.6021" id="Fill-21" fill="#FFFFFF" mask="url(#mask-4)"></path>
            <path d="M95.1266,38.3959 C96.9196,38.3959 98.2666,39.0519 99.3806,40.5919 L101.0216,39.3839 C99.5486,37.3529 97.9426,36.3599 94.9476,36.3599 C91.2916,36.3599 88.4686,39.1809 88.4686,42.9999 C88.4686,46.8389 91.1806,49.5869 94.5396,49.5869 C95.4846,49.5869 96.3426,49.3809 97.0636,49.0779 C97.7216,48.8099 98.0926,48.6079 98.5186,48.3179 C98.6956,48.1979 98.9026,48.0559 99.0366,48.1039 C99.1496,48.1449 99.1586,48.2699 99.1586,48.4069 C99.1586,48.8119 99.1616,49.2939 99.1616,49.2939 C99.1616,49.2949 99.5096,49.4059 100.0096,49.4059 C100.4956,49.4059 100.8556,49.2659 100.8556,49.2659 L100.8536,42.4739 L95.1476,42.4739 L95.1476,44.2869 L98.8956,44.2869 C98.8856,45.6479 97.6546,47.5499 94.8436,47.5499 C92.1896,47.5499 90.6376,45.4429 90.6376,42.9999 C90.6376,40.2419 92.8136,38.3959 95.1266,38.3959" id="Fill-22" fill="#FFFFFF" mask="url(#mask-4)"></path>
            <path d="M69.1495,36.5702 L69.1495,45.8082 C66.9625,42.2882 64.7735,39.1012 62.6405,36.5702 C62.6405,36.5702 62.1895,36.4592 61.5445,36.4592 C60.9105,36.4592 60.4515,36.5702 60.4485,36.5702 L60.4495,49.3122 C60.4515,49.3132 60.8985,49.4232 61.5395,49.4232 C62.1695,49.4232 62.6255,49.3132 62.6285,49.3122 L62.6285,39.4402 C64.9585,42.6462 67.1465,45.9512 69.1115,49.3122 C69.1115,49.3122 69.5725,49.4232 70.2225,49.4232 C70.8625,49.4232 71.3295,49.3122 71.3295,49.3122 L71.3295,36.5702 C71.3285,36.5702 70.8815,36.4592 70.2395,36.4592 C69.6085,36.4592 69.1495,36.5702 69.1495,36.5702" id="Fill-23" fill="#FFFFFF" mask="url(#mask-4)"></path>
            <path d="M73.2228,38.6342 L77.8438,38.6342 L77.8438,49.3122 C77.8458,49.3122 78.3308,49.4232 79.0278,49.4232 C79.7128,49.4232 80.2088,49.3132 80.2108,49.3122 L80.2108,38.6342 L84.8318,38.6342 L84.8318,36.5802 L73.2228,36.5802 L73.2228,38.6342 Z" id="Fill-24" fill="#FFFFFF" mask="url(#mask-4)"></path>
            <polygon id="Fill-25" fill="#FFFFFF" mask="url(#mask-4)" points="173.681 51.054 174.181 51.054 174.181 2.863 173.681 2.863"></polygon>
            <path d="M210.4503,23.5956 C210.7993,26.6126 211.4943,29.0776 212.5683,31.2826 C213.6993,28.9326 214.3083,26.2356 214.6853,22.7836 L210.7993,22.7836 L210.4503,23.5956 Z M207.5793,17.4166 C206.8833,18.6646 205.6353,20.4046 204.8813,21.3036 L202.9953,19.9696 C203.7213,19.0996 204.9393,17.3596 205.6353,16.1116 L207.5793,17.4166 Z M198.8473,34.5316 L201.6903,35.8366 C202.7053,35.0246 203.3443,34.1546 203.8373,33.0806 L199.5733,33.0806 L198.8473,34.5316 Z M197.3393,21.1296 C196.7883,20.0856 195.6853,18.3746 194.9023,17.3596 L196.6423,16.0826 C197.3103,16.9236 198.5283,18.5486 199.2243,19.7956 L197.3393,21.1296 Z M193.5973,27.8016 C195.6853,26.6706 197.6003,25.3356 199.0803,23.8566 L194.2943,23.8566 L194.2943,21.4496 L199.8913,21.4496 L199.8913,15.6186 L202.4443,15.7346 L202.4443,21.4496 L207.3763,21.4496 L207.3763,23.8566 L202.4443,23.8566 L202.4443,25.2206 L203.3143,24.1176 C204.3303,24.8136 206.0993,26.2636 207.3463,27.4246 L205.8673,29.3966 C204.9393,28.3816 203.4303,27.1346 202.4443,26.3806 L202.4443,28.8456 L199.8913,28.8456 L199.8913,26.1186 C198.4713,27.5986 196.7593,28.9616 194.7283,30.1516 L193.5973,27.8016 Z M219.7913,39.6366 L218.0503,42.0736 C215.8163,40.1876 214.0183,38.3306 212.6263,36.4456 C211.1463,38.3026 209.2323,40.0426 206.7663,41.9866 L205.3453,40.0136 L205.0843,40.5356 C204.0683,39.9846 202.9953,39.3756 201.8353,38.7656 C200.0953,39.9266 197.7743,40.9996 194.6123,42.0436 L193.4523,39.5206 C195.8883,38.7956 197.6873,38.0986 199.1673,37.4026 C197.8043,36.7066 196.4983,36.0396 195.2513,35.4596 C195.7153,34.6766 196.1213,33.8926 196.5553,33.0806 L194.1783,33.0806 L194.1783,30.7316 L197.7173,30.7316 C198.0353,29.9486 198.3253,29.2816 198.5283,28.6716 L201.1383,29.3966 L200.6173,30.7316 L206.7083,30.7316 L206.7083,32.9646 C206.0413,34.4446 205.2583,35.7786 204.0683,36.9676 C204.7643,37.3446 205.5483,37.6926 206.3313,38.1276 L205.8963,38.9406 C208.1003,37.3446 209.7253,35.7786 211.0023,33.9506 C209.8703,31.8916 209.0573,29.6866 208.5643,27.3376 L208.1873,28.0046 L206.1573,26.0326 C208.0133,23.1606 209.6093,18.6936 210.3053,15.3866 L212.9733,15.8796 C212.6833,17.1566 212.3063,18.4906 211.8723,19.9116 L219.1813,19.9116 L219.1813,22.7836 L217.2963,22.7836 C216.8323,27.6276 215.9903,31.0506 214.2503,34.0676 C215.6723,36.0396 217.4703,37.7806 219.7913,39.6366 L219.7913,39.6366 Z" id="Fill-26" fill="#FFFFFF" mask="url(#mask-4)"></path>
            <path d="M226.629,25.0458 L223.699,25.0458 L223.699,18.4898 L233.881,18.4898 C233.619,17.4748 233.388,16.5758 233.068,15.6478 L236.288,15.1548 C236.636,16.2278 236.839,17.0978 237.275,18.4898 L246.817,18.4898 L246.817,25.0748 L243.859,25.0748 L243.859,21.2748 L226.629,21.2748 L226.629,25.0458 Z M247.891,33.6608 L236.868,33.6608 L236.868,37.6058 C236.868,40.6808 236.231,41.2318 233.272,41.4638 L230.893,41.6378 L229.993,38.7958 L232.256,38.6208 C233.678,38.5048 233.939,38.1568 233.939,36.7938 L233.939,33.6608 L222.597,33.6608 L222.597,30.8768 L233.939,30.8768 L233.939,29.3678 L238.464,26.5538 L227.296,26.5538 L227.296,23.8278 L243.482,23.8278 L243.482,26.6418 L236.868,30.6448 L236.868,30.8768 L247.891,30.8768 L247.891,33.6608 Z" id="Fill-27" fill="#FFFFFF" mask="url(#mask-4)"></path>
            <path d="M267.4923,24.1469 C266.1873,22.7839 263.8953,20.6079 262.6483,19.6799 L264.3883,17.5909 C265.7813,18.6929 267.9563,20.6949 269.2913,21.9419 L267.4923,24.1469 Z M263.5183,24.4659 C264.9113,25.5389 267.1443,27.3669 268.5373,28.7589 L266.7093,31.0499 C265.3163,29.7449 263.0253,27.6859 261.7783,26.6699 L263.5183,24.4659 Z M272.8013,34.3279 L272.8013,41.5799 L269.9873,41.5799 L269.9873,34.6179 L260.6463,35.5759 L260.4433,32.9069 L260.1823,33.1969 C259.6023,32.4139 258.7623,31.3399 257.9783,30.4409 L257.9783,41.6669 L255.3963,41.6669 L255.3963,31.0219 C254.3233,33.2259 253.1043,35.2559 251.9733,36.8519 L250.0883,34.7059 C251.8293,32.2979 253.7433,29.1649 255.0493,26.0609 L251.4233,26.0609 L251.4233,23.3059 L255.3963,23.3059 L255.3963,20.1439 C254.0913,20.3759 252.8143,20.5789 251.7703,20.7239 L251.5103,18.0549 C254.2943,17.7359 258.5583,16.8659 261.3433,16.0829 L261.8653,18.7229 C260.7333,19.0419 259.3993,19.3319 257.9783,19.6509 L257.9783,23.3059 L261.6033,23.3059 L261.6033,26.0609 L257.9783,26.0609 L257.9783,28.1209 L258.6743,27.4819 C259.5153,28.3239 261.0533,30.0639 261.9813,31.2829 L260.6463,32.7039 L269.9873,31.7469 L269.9873,15.4739 L272.8013,15.5899 L272.8013,31.4279 L276.5133,31.0499 L276.6873,33.9219 L272.8013,34.3279 Z" id="Fill-28" fill="#FFFFFF" mask="url(#mask-4)"></path>
            <path d="M292.8673,28.1205 C293.7953,30.3255 294.7523,32.1525 296.1153,33.6895 C297.8563,32.0655 299.0163,30.3255 299.8003,28.1205 L292.8673,28.1205 Z M304.2093,42.4505 C300.8143,40.8545 298.2043,39.4625 296.0873,37.6355 C293.9983,39.1725 291.3883,40.5645 287.7913,42.1885 L286.3403,39.1435 C289.4723,37.8955 291.9093,36.7355 293.8823,35.4305 C292.5183,33.8345 291.3583,31.8625 290.3723,29.4545 L292.8083,28.1205 L289.1823,28.1205 L289.1823,25.3355 L294.7813,25.3355 L294.7813,21.8265 L289.1543,21.8265 L289.1543,19.0705 L294.7813,19.0705 L294.7813,15.2705 L297.7113,15.3865 L297.7113,19.0705 L304.3243,19.0705 L304.3243,21.8265 L297.7113,21.8265 L297.7113,25.3355 L302.9033,25.3355 L302.9033,28.2075 C301.6563,31.3405 300.3803,33.6895 298.3203,35.7495 C300.0903,37.1125 302.2643,38.2155 305.2533,39.2305 L304.2093,42.4505 Z M289.0093,29.3685 C288.2253,29.6865 287.2103,30.0935 286.0503,30.5285 L286.0503,38.4185 C286.0503,40.8835 285.2663,41.2035 282.7433,41.5215 L281.4673,41.6665 L280.5673,38.6205 L281.8733,38.5055 C282.9173,38.4185 283.1493,38.2735 283.1493,37.1995 L283.1493,31.5725 C281.7573,32.0655 280.4523,32.5005 279.6393,32.7325 L278.7993,29.5995 C279.8133,29.2815 281.4383,28.7875 283.1493,28.2075 L283.1493,23.2765 L280.1033,23.2765 L280.1033,20.2595 L283.1493,20.2595 L283.1493,15.4445 L286.0503,15.5605 L286.0503,20.2595 L288.5453,20.2595 L288.5453,23.2765 L286.0503,23.2765 L286.0503,27.1635 L288.1383,26.3515 L289.0093,29.3685 Z" id="Fill-29" fill="#FFFFFF" mask="url(#mask-4)"></path>
        </g>
    </g>
</svg>