<?xml version="1.0" encoding="UTF-8"?>
<svg width="416px" height="166px" viewBox="0 0 416 166" version="1.1" xmlns="http://www.w3.org/2000/svg" xmlns:xlink="http://www.w3.org/1999/xlink">
    <title>数字科技集团联标-英文-反白</title>
    <defs>
        <polygon id="path-1" points="0 52.846 310.528 52.846 310.528 0 0 0"></polygon>
    </defs>
    <g id="数字科技集团联标-英文-反白" stroke="none" stroke-width="1" fill="none" fill-rule="evenodd">
        <rect id="矩形备份" fill="#1677FF" x="-0.5" y="-0.382938167" width="416.5" height="166.382938"></rect>
        <g id="编组" transform="translate(52.236000, 56.194062)">
            <polygon id="Fill-1" fill="#FFFFFF" points="139.684 52.846 140.184 52.846 140.184 4.655 139.684 4.655"></polygon>
            <g>
                <path d="M165.379,22.6834 C168.192,22.6834 169.746,21.6124 169.746,17.7704 C169.746,13.7184 168.13,12.8154 165.379,12.8154 L163.531,12.8154 L163.531,22.6834 L165.379,22.6834 Z M165.505,10.4844 C169.746,10.4844 172.581,11.7024 172.581,17.7704 C172.581,23.3974 169.746,25.0564 165.505,25.0564 L160.781,25.0564 L160.781,10.4844 L165.505,10.4844 Z" id="Fill-2" fill="#FFFFFF"></path>
                <mask id="mask-2" fill="white">
                    <use xlink:href="#path-1"></use>
                </mask>
                <g id="Clip-5"></g>
                <polygon id="Fill-4" fill="#FFFFFF" mask="url(#mask-2)" points="175.649 25.056 178.4 25.056 178.4 10.485 175.649 10.485"></polygon>
                <path d="M181.4454,17.7703 C181.4454,12.1433 184.1744,10.2743 188.6464,10.2743 C189.9694,10.2743 191.6914,10.4633 192.5094,10.7993 L192.5094,13.2353 C191.4394,12.8363 190.1794,12.6473 188.8364,12.6473 C185.8754,12.6473 184.4054,13.7393 184.4054,17.7703 C184.4054,22.0323 185.7074,22.9353 188.7104,22.9353 C189.3604,22.9353 190.0114,22.9143 190.5364,22.7673 L190.5364,19.1563 L187.9124,19.1563 L187.9124,16.8463 L193.1194,16.8463 L193.1194,24.6363 C192.0274,24.9723 190.3264,25.2663 188.5004,25.2663 C184.0914,25.2663 181.4454,23.8803 181.4454,17.7703" id="Fill-6" fill="#FFFFFF" mask="url(#mask-2)"></path>
                <polygon id="Fill-7" fill="#FFFFFF" mask="url(#mask-2)" points="196.334 25.056 199.084 25.056 199.084 10.485 196.334 10.485"></polygon>
                <polygon id="Fill-8" fill="#FFFFFF" mask="url(#mask-2)" points="211.8507 12.8992 207.8817 12.8992 207.8817 25.0562 205.1317 25.0562 205.1317 12.8992 201.1847 12.8992 201.1847 10.4842 211.8507 10.4842"></polygon>
                <path d="M220.1466,18.8831 L218.0676,12.9411 L217.8156,12.9411 L215.6956,18.8831 L220.1466,18.8831 Z M220.9656,21.1931 L214.8756,21.1931 L213.4916,25.0561 L210.6566,25.0561 L216.1156,10.4851 L219.8106,10.4851 L225.2276,25.0561 L222.3096,25.0561 L220.9656,21.1931 Z" id="Fill-9" fill="#FFFFFF" mask="url(#mask-2)"></path>
                <polygon id="Fill-10" fill="#FFFFFF" mask="url(#mask-2)" points="235.7911 22.6414 235.7911 25.0564 227.0571 25.0564 227.0571 10.4844 229.8081 10.4844 229.8081 22.6414"></polygon>
                <polygon id="Fill-11" fill="#FFFFFF" mask="url(#mask-2)" points="170.1036 35.8992 166.1346 35.8992 166.1346 48.0562 163.3846 48.0562 163.3846 35.8992 159.4376 35.8992 159.4376 33.4842 170.1036 33.4842"></polygon>
                <polygon id="Fill-12" fill="#FFFFFF" mask="url(#mask-2)" points="181.1915 45.6414 181.1915 48.0564 172.1835 48.0564 172.1835 33.4844 180.8135 33.4844 180.8135 35.8784 174.9345 35.8784 174.9345 39.4054 180.3935 39.4054 180.3935 41.6944 174.9345 41.6944 174.9345 45.6414"></polygon>
                <path d="M183.545,40.7703 C183.545,35.1433 186.254,33.2743 190.495,33.2743 C191.901,33.2743 192.931,33.4213 193.833,33.7363 L193.833,36.1513 C192.931,35.8363 191.923,35.6473 190.663,35.6473 C187.808,35.6473 186.484,36.8863 186.484,40.7493 C186.484,44.8433 187.766,45.8513 190.558,45.8513 C191.839,45.8513 192.889,45.6833 194.001,45.2843 L194.001,47.6573 C193.141,47.9933 191.881,48.2663 190.453,48.2663 C186.274,48.2663 183.545,46.8803 183.545,40.7703" id="Fill-13" fill="#FFFFFF" mask="url(#mask-2)"></path>
                <polygon id="Fill-14" fill="#FFFFFF" mask="url(#mask-2)" points="208.3233 33.4847 208.3233 48.0557 205.5723 48.0557 205.5723 41.4007 199.3363 41.4007 199.3363 48.0557 196.5863 48.0557 196.5863 33.4847 199.3363 33.4847 199.3363 39.1117 205.5723 39.1117 205.5723 33.4847"></polygon>
                <polygon id="Fill-15" fill="#FFFFFF" mask="url(#mask-2)" points="211.7901 33.4847 216.0111 33.4847 221.3021 44.4657 221.4271 44.4657 221.4271 33.4847 224.1141 33.4847 224.1141 48.0557 220.3781 48.0557 214.6241 36.3817 214.4991 36.3817 214.4991 48.0557 211.7901 48.0557"></polygon>
                <path d="M237.2823,40.7703 C237.2823,37.0543 236.6313,35.5423 233.6713,35.5423 C230.6883,35.5423 230.0383,37.0543 230.0383,40.7703 C230.0383,44.5493 230.6883,45.9563 233.6713,45.9563 C236.6313,45.9563 237.2823,44.5493 237.2823,40.7703 M227.1613,40.7703 C227.1613,34.8913 229.4713,33.2743 233.6713,33.2743 C237.8703,33.2743 240.1583,34.8913 240.1583,40.7703 C240.1583,46.7123 237.8703,48.2663 233.6713,48.2663 C229.4713,48.2663 227.1613,46.7123 227.1613,40.7703" id="Fill-16" fill="#FFFFFF" mask="url(#mask-2)"></path>
                <polygon id="Fill-17" fill="#FFFFFF" mask="url(#mask-2)" points="251.961 45.6414 251.961 48.0564 243.227 48.0564 243.227 33.4844 245.978 33.4844 245.978 45.6414"></polygon>
                <path d="M262.9639,40.7703 C262.9639,37.0543 262.3139,35.5423 259.3529,35.5423 C256.3719,35.5423 255.7209,37.0543 255.7209,40.7703 C255.7209,44.5493 256.3719,45.9563 259.3529,45.9563 C262.3139,45.9563 262.9639,44.5493 262.9639,40.7703 M252.8449,40.7703 C252.8449,34.8913 255.1529,33.2743 259.3529,33.2743 C263.5519,33.2743 265.8409,34.8913 265.8409,40.7703 C265.8409,46.7123 263.5519,48.2663 259.3529,48.2663 C255.1529,48.2663 252.8449,46.7123 252.8449,40.7703" id="Fill-18" fill="#FFFFFF" mask="url(#mask-2)"></path>
                <path d="M268.5108,40.7703 C268.5108,35.1433 271.2398,33.2743 275.7118,33.2743 C277.0338,33.2743 278.7568,33.4633 279.5748,33.7993 L279.5748,36.2353 C278.5048,35.8363 277.2448,35.6473 275.9018,35.6473 C272.9408,35.6473 271.4708,36.7393 271.4708,40.7703 C271.4708,45.0323 272.7728,45.9353 275.7748,45.9353 C276.4258,45.9353 277.0768,45.9143 277.6018,45.7673 L277.6018,42.1563 L274.9778,42.1563 L274.9778,39.8463 L280.1848,39.8463 L280.1848,47.6363 C279.0928,47.9723 277.3918,48.2663 275.5658,48.2663 C271.1558,48.2663 268.5108,46.8803 268.5108,40.7703" id="Fill-19" fill="#FFFFFF" mask="url(#mask-2)"></path>
                <polygon id="Fill-20" fill="#FFFFFF" mask="url(#mask-2)" points="283.399 48.056 286.149 48.056 286.149 33.485 283.399 33.485"></polygon>
                <polygon id="Fill-21" fill="#FFFFFF" mask="url(#mask-2)" points="298.6006 45.6414 298.6006 48.0564 289.5936 48.0564 289.5936 33.4844 298.2236 33.4844 298.2236 35.8784 292.3446 35.8784 292.3446 39.4054 297.8036 39.4054 297.8036 41.6944 292.3446 41.6944 292.3446 45.6414"></polygon>
                <path d="M300.7862,47.741 L300.7862,45.284 C301.6692,45.62 303.4532,45.893 304.9852,45.893 C307.0012,45.893 307.8002,45.41 307.8002,43.92 C307.8002,42.555 307.3162,42.177 304.9232,41.568 C301.8572,40.854 300.8912,39.993 300.8912,37.432 C300.8912,34.471 302.6772,33.254 306.0572,33.254 C307.6322,33.254 309.0162,33.506 309.7722,33.779 L309.7722,36.109 C309.0162,35.836 307.4002,35.563 306.1402,35.563 C304.3772,35.563 303.5792,35.92 303.5792,37.369 C303.5792,38.482 303.9152,38.818 306.2242,39.385 C309.6262,40.224 310.5282,41.19 310.5282,43.962 C310.5282,46.817 308.8702,48.266 305.0692,48.266 C303.3492,48.266 301.6052,48.014 300.7862,47.741" id="Fill-22" fill="#FFFFFF" mask="url(#mask-2)"></path>
                <path d="M33.0821,20.5897 C30.9341,18.4227 28.2301,17.2297 25.4811,17.2267 C25.3841,17.2267 25.2871,17.2287 25.1891,17.2317 C22.6861,17.3057 20.3961,18.3767 18.7121,20.2577 C16.7081,22.4947 15.7581,25.6767 16.0951,28.9927 C16.4111,32.1247 17.8011,35.0277 20.0131,37.1797 C22.2191,39.3257 24.9691,40.4607 27.7661,40.3757 C30.2511,40.2987 32.5481,39.2247 34.2291,37.3417 C36.2061,35.1277 37.1721,31.9797 36.8641,28.7087 C36.5771,25.6467 35.2321,22.7577 33.0821,20.5897" id="Fill-23" fill="#FFFFFF" mask="url(#mask-2)"></path>
                <path d="M26.9229,42.2245219 C20.4029,42.1934 14.6289,36.2894 14.0059,29.0394 C13.3839,21.7924 18.1439,15.9114 24.6549,15.9013873 C31.1879,15.8914 37.0069,21.7904 37.6369,29.0784 C38.2659,36.3694 33.4609,42.2554 26.9229,42.2245219 M36.5659,22.0514 C34.9589,19.1994 32.6309,16.7724 29.8539,15.0424 C28.0269,13.9044 26.0179,13.0834 23.9279,12.6014 C24.4349,10.3714 25.1129,7.9124 26.7289,6.3534 C27.7799,5.3404 29.2089,4.6234 29.8009,3.2144 C30.4249,1.7264 29.8259,-0.0006 28.2609,-0.0006 C28.0689,-0.0006 27.8639,0.0254 27.6459,0.0794 C26.4649,0.3754 25.4449,1.2094 24.7409,2.1824 C23.7629,3.5344 23.2299,5.1314 22.8499,6.7404 C22.4209,8.5584 22.1129,10.3954 21.7879,12.2304 C21.3189,12.1764 20.8489,12.1344 20.3769,12.1144 C20.0989,12.1034 19.8189,12.1034 19.5419,12.1034 C19.2829,12.1034 19.0249,12.1034 18.7679,12.0934 C18.0649,12.0664 17.3769,11.9674 16.7299,11.5974 C16.2209,11.3044 15.5749,10.8244 14.9369,10.8244 C14.8089,10.8244 14.6809,10.8434 14.5539,10.8874 C13.7229,11.1784 13.4009,12.3324 12.7549,12.8974 C11.9099,13.6374 10.8979,14.0684 9.9369,14.6144 C9.4949,13.3664 9.1929,12.0304 9.2309,10.7244 C9.2939,8.5284 10.5019,5.6054 8.9069,3.6984 C8.5269,3.2454 7.9819,3.0104 7.4319,3.0104 C7.0069,3.0104 6.5779,3.1504 6.2249,3.4404 C5.8059,3.7834 5.5229,4.2684 5.3429,4.8034 C5.1179,5.4684 5.0519,6.2094 5.0749,6.8464 C5.0849,7.1104 5.1029,7.3734 5.1289,7.6364 C5.1559,7.9264 5.1959,8.2144 5.2419,8.5024 C5.5049,10.0994 6.0379,11.6404 6.6679,13.1264 C7.0639,14.0624 7.4879,15.0014 7.9349,15.9274 C7.6829,16.1124 7.4259,16.2914 7.1819,16.4904 C5.5929,17.7864 4.2079,19.3324 3.0969,21.0554 C0.9409,24.3984 -0.1411,28.3704 0.0149,32.3454 C0.4459,43.4054 10.0329,51.9524 21.2099,51.0024 C31.1899,50.1544 38.9859,41.7404 39.0569,31.7464 C39.0799,28.3644 38.2249,25.0004 36.5659,22.0514" id="Fill-24" fill="#FFFFFF" mask="url(#mask-2)"></path>
                <path d="M84.8751,45.7449 C82.1831,45.7449 80.0001,43.5619 80.0001,40.8689 C80.0001,38.1759 82.1831,35.9939 84.8751,35.9939 C87.5681,35.9939 89.7511,38.1759 89.7511,40.8689 C89.7511,43.5619 87.5681,45.7449 84.8751,45.7449 M84.8741,33.5479 C80.8311,33.5479 77.5531,36.8259 77.5531,40.8689 C77.5531,44.9129 80.8311,48.1909 84.8741,48.1909 C88.9181,48.1909 92.1961,44.9129 92.1961,40.8689 C92.1961,36.8259 88.9181,33.5479 84.8741,33.5479" id="Fill-25" fill="#FFFFFF" mask="url(#mask-2)"></path>
                <path d="M69.8096,40.4485 L66.5796,40.4485 L66.5796,35.8695 L70.2466,35.8695 C72.3716,35.8695 73.3616,36.2865 73.3616,38.0135 C73.3616,39.8505 71.9336,40.4485 69.8096,40.4485 M73.1566,42.9825 C72.4156,42.3975 71.7636,42.2855 71.7836,42.1405 C71.8006,42.0165 72.1476,42.0725 72.7656,41.8875 C74.6806,41.3345 75.8146,39.8975 75.8146,38.0135 C75.8146,34.6995 73.5206,33.7975 70.2066,33.7975 L64.1206,33.7975 L64.1206,47.9015 C64.1206,47.9015 64.6266,48.0245 65.3496,48.0245 C66.0626,48.0245 66.5776,47.9025 66.5796,47.9015 L66.5796,42.5475 L68.1626,42.5475 C69.2896,42.5485 70.1376,42.6895 70.7456,43.1515 C71.3986,43.6475 71.9146,44.3255 72.6006,45.3945 C73.0006,46.0185 73.9966,47.8995 73.9986,47.9035 C73.9986,47.9035 74.5866,48.0245 75.4386,48.0245 C76.2776,48.0245 76.8426,47.8325 76.8426,47.8325 C75.2396,45.2775 74.3766,43.9485 73.1566,42.9825" id="Fill-26" fill="#FFFFFF" mask="url(#mask-2)"></path>
                <path d="M103.8702,33.8157 L103.8702,42.1827 C103.8702,44.4507 102.5292,45.8867 100.3122,45.8867 C98.0962,45.8867 96.7552,44.4507 96.7552,42.1827 L96.7552,33.8157 C96.7542,33.8157 96.2462,33.6927 95.5172,33.6927 C94.8012,33.6927 94.2902,33.8157 94.2902,33.8157 L94.2902,42.2677 C94.2902,46.3877 96.9322,48.1907 100.3122,48.1907 C103.6932,48.1907 106.3352,46.3877 106.3352,42.2677 L106.3352,33.8157 C106.3352,33.8157 105.8242,33.6927 105.1072,33.6927 C104.3792,33.6927 103.8712,33.8157 103.8702,33.8157" id="Fill-27" fill="#FFFFFF" mask="url(#mask-2)"></path>
                <path d="M115.0645,41.1409 L111.6685,41.1409 L111.6685,36.0149 L115.0645,36.0149 C117.1885,36.0149 118.1035,36.7139 118.1035,38.5889 C118.1035,40.4639 116.9635,41.1409 115.0645,41.1409 M115.4765,33.8159 L109.1935,33.8159 L109.1935,47.8939 C109.1945,47.8939 109.7025,48.0169 110.4305,48.0169 C111.1475,48.0169 111.6655,47.8949 111.6685,47.8939 L111.6685,43.3399 L115.5605,43.3399 C118.4835,43.3399 120.4555,41.4519 120.4555,38.5249 C120.4555,35.5969 118.5115,33.8159 115.4765,33.8159" id="Fill-28" fill="#FFFFFF" mask="url(#mask-2)"></path>
                <path d="M54.837,35.8021 C56.822,35.8021 58.313,36.5281 59.546,38.2331 L61.362,36.8961 C59.733,34.6461 57.954,33.5471 54.639,33.5471 C50.59,33.5471 47.466,36.6711 47.466,40.8991 C47.466,45.1491 50.468,48.1911 54.187,48.1911 C55.233,48.1911 56.183,47.9631 56.98,47.6271 C57.71,47.3311 58.119,47.1071 58.591,46.7861 C58.787,46.6531 59.017,46.4961 59.165,46.5491 C59.291,46.5951 59.3,46.7321 59.3,46.8851 C59.3,47.3331 59.303,47.8671 59.303,47.8671 C59.304,47.8681 59.69,47.9901 60.241,47.9901 C60.78,47.9901 61.179,47.8351 61.179,47.8351 L61.177,40.3161 L54.859,40.3161 L54.859,42.3241 L59.009,42.3241 C58.997,43.8301 57.636,45.9361 54.523,45.9361 C51.585,45.9361 49.866,43.6021 49.866,40.8991 C49.866,37.8451 52.276,35.8021 54.837,35.8021" id="Fill-29" fill="#FFFFFF" mask="url(#mask-2)"></path>
                <path d="M54.6788,23.5145 C53.6318,23.5145 52.4048,23.6905 51.6678,23.9355 C52.5398,21.2585 53.9598,17.9535 54.2028,17.4055 C54.2738,17.2465 54.3448,17.1985 54.4188,17.1985 C54.4888,17.1985 54.5588,17.2395 54.6198,17.3745 C54.8828,17.9535 56.3018,21.2585 57.1328,23.7415 C56.5578,23.6515 55.7688,23.5145 54.6788,23.5145 L54.6788,23.5145 Z M52.7528,15.1445 C50.6858,19.5145 48.9108,24.2635 47.4278,29.2895 C47.4278,29.2895 47.9338,29.4115 48.6998,29.4115 C49.4258,29.4115 49.9348,29.2895 49.9388,29.2875 C50.4028,27.6455 51.1508,25.4285 51.1508,25.4285 C51.1508,25.4285 53.1028,25.1985 54.4098,25.3095 C55.9488,25.4395 56.7388,25.6565 57.4688,25.9815 C57.7878,26.1245 57.9558,26.2245 58.0408,26.4855 C58.2128,27.0145 58.5188,28.0225 58.8798,29.2855 C58.8798,29.2855 59.4068,29.4115 60.1438,29.4115 C60.9058,29.4115 61.3878,29.2935 61.3858062,29.2905 C59.9368,24.2635 58.1798,19.5145 56.0748,15.1445 L52.7528,15.1445 Z" id="Fill-30" fill="#FFFFFF" mask="url(#mask-2)"></path>
                <path d="M72.7999,15.1814 L72.7999,25.4094 C70.3789,21.5114 67.9539,17.9834 65.5939,15.1814 C65.5939,15.1814 65.0949,15.0584 64.3809,15.0584 C63.6779,15.0584 63.1699,15.1814 63.1679,15.1814 L63.1679,29.2874 C63.1709,29.2884 63.6649,29.4104 64.3749,29.4104 C65.0719,29.4104 65.5769,29.2884 65.5809,29.2874 L65.5819,18.3584 C68.1599,21.9074 70.5809,25.5674 72.7589,29.2874 C72.7589,29.2874 73.2689,29.4104 73.9879,29.4104 C74.6969,29.4104 75.2139,29.2874 75.2139,29.2874 L75.2139,15.1814 C75.2129,15.1814 74.7169,15.0584 74.0069,15.0584 C73.3079,15.0584 72.7999,15.1814 72.7999,15.1814" id="Fill-31" fill="#FFFFFF" mask="url(#mask-2)"></path>
                <path d="M77.3096,17.4661 L82.4256,17.4661 L82.4256,29.2881 C82.4266,29.2881 82.9646,29.4111 83.7366,29.4111 C84.4956,29.4111 85.0436,29.2881 85.0466,29.2881 L85.0466,17.4661 L90.1626,17.4661 L90.1626,15.1921 L77.3096,15.1921 L77.3096,17.4661 Z" id="Fill-32" fill="#FFFFFF" mask="url(#mask-2)"></path>
            </g>
        </g>
    </g>
</svg>