<?xml version="1.0" encoding="UTF-8"?>
<svg width="416px" height="166px" viewBox="0 0 416 166" version="1.1" xmlns="http://www.w3.org/2000/svg" xmlns:xlink="http://www.w3.org/1999/xlink">
    <title>数字科技集团联标-英文</title>
    <defs>
        <polygon id="path-1" points="0 68.22 323.888 68.22 323.888 0 0 0"></polygon>
        <path d="M6.01298101,0.08 C4.83198101,0.376 3.81198101,1.211 3.10898101,2.184 L3.10898101,2.184 C2.12998101,3.535 1.59698101,5.132 1.21698101,6.741 L1.21698101,6.741 C0.747981011,8.727 0.424981011,10.737 0.0649810108,12.74 L0.0649810108,12.74 C-0.00501898919,13.129 -0.0430189892,13.538 0.0809810108,13.913 L0.0809810108,13.913 C0.220981011,14.338 0.524981011,14.581 0.851981011,14.648 L0.851981011,14.648 C1.33898101,14.749 1.87898101,14.467 2.01998101,13.832 L2.01998101,13.832 C2.57498101,11.334 3.17598101,8.206 5.09598101,6.354 L5.09598101,6.354 C6.14798101,5.342 7.57598101,4.625 8.16798101,3.215 L8.16798101,3.215 C8.79198101,1.727 8.19398101,0 6.62798101,0 L6.62798101,0 C6.43698101,0 6.23198101,0.026 6.01298101,0.08" id="path-3"></path>
        <path d="M14.5539513,0.063 C13.7229513,0.354 13.4009513,1.509 12.7549513,2.073 L12.7549513,2.073 C11.8479513,2.868 10.7439513,3.301 9.72095131,3.911 L9.72095131,3.911 C8.83395131,4.439 7.98195131,5.013 7.18195131,5.666 L7.18195131,5.666 C5.59295131,6.962 4.20795131,8.508 3.09695131,10.232 L3.09695131,10.232 C0.940951313,13.574 -0.142048687,17.546 0.0149513128,21.521 L0.0149513128,21.521 C0.446951313,32.58 10.0339513,41.128 21.2099513,40.178 L21.2099513,40.178 C31.1899513,39.329 38.9869513,30.916 39.0569513,20.922 L39.0569513,20.922 C39.0799513,17.54 38.2239513,14.176 36.5659513,11.227 L36.5659513,11.227 C34.9589513,8.375 32.6309513,5.947 29.8539513,4.218 L29.8539513,4.218 C27.0109513,2.447 23.7239513,1.432 20.3769513,1.29 L20.3769513,1.29 C20.0989513,1.279 19.8189513,1.279 19.5419513,1.279 L19.5419513,1.279 C19.2829513,1.279 19.0249513,1.279 18.7679513,1.268 L18.7679513,1.268 C18.0649513,1.241 17.3769513,1.142 16.7299513,0.773 L16.7299513,0.773 C16.2209513,0.48 15.5749513,0 14.9369513,0 L14.9369513,0 C14.8089513,0 14.6809513,0.019 14.5539513,0.063" id="path-5"></path>
        <path d="M1.15360583,0.43 C0.73460583,0.773 0.45160583,1.259 0.27160583,1.792 L0.27160583,1.792 C0.0476058303,2.458 -0.0193941697,3.199 0.00460583026,3.836 L0.00460583026,3.836 C0.0136058303,4.1 0.0316058303,4.363 0.0576058303,4.626 L0.0576058303,4.626 C0.0856058303,4.915 0.12460583,5.204 0.17060583,5.491 L0.17060583,5.491 C0.43360583,7.09 0.96760583,8.63 1.59760583,10.117 L1.59760583,10.117 C2.20860583,11.561 2.85460583,13.038 3.61260583,14.412 L3.61260583,14.412 C3.94160583,15.007 4.45060583,15.842 5.24760583,15.448 L5.24760583,15.448 C5.71560583,15.217 5.97860583,14.716 5.90360583,14.11 L5.90360583,14.11 C5.85960583,13.748 5.61760583,13.426 5.47260583,13.108 L5.47260583,13.108 C4.72760583,11.475 4.10660583,9.563 4.15960583,7.714 L4.15960583,7.714 C4.22260583,5.518 5.43060583,2.595 3.83660583,0.688 L3.83660583,0.688 C3.45560583,0.235 2.91060583,0 2.36060583,0 L2.36060583,0 C1.93560583,0 1.50760583,0.14 1.15360583,0.43" id="path-7"></path>
    </defs>
    <g id="数字科技集团联标-英文" stroke="none" stroke-width="1" fill="none" fill-rule="evenodd">
        <rect id="矩形备份" fill="#F7F7F7" x="0" y="-0.382938167" width="416" height="166.382938"></rect>
        <g id="编组" transform="translate(46.056000, 48.507062)">
            <polygon id="Fill-1" fill="#000000" points="153.043 56.508 153.542 56.508 153.542 8.317 153.043 8.317"></polygon>
            <g>
                <path d="M178.7382,26.3465 C181.5512,26.3465 183.1052,25.2755 183.1052,21.4335 C183.1052,17.3815 181.4892,16.4785 178.7382,16.4785 L176.8902,16.4785 L176.8902,26.3465 L178.7382,26.3465 Z M178.8642,14.1475 C183.1052,14.1475 185.9402,15.3655 185.9402,21.4335 C185.9402,27.0605 183.1052,28.7195 178.8642,28.7195 L174.1402,28.7195 L174.1402,14.1475 L178.8642,14.1475 Z" id="Fill-2" fill="#000000"></path>
                <mask id="mask-2" fill="white">
                    <use xlink:href="#path-1"></use>
                </mask>
                <g id="Clip-5"></g>
                <polygon id="Fill-4" fill="#000000" mask="url(#mask-2)" points="189.008 28.719 191.759 28.719 191.759 14.148 189.008 14.148"></polygon>
                <path d="M194.8046,21.4334 C194.8046,15.8064 197.5336,13.9374 202.0056,13.9374 C203.3286,13.9374 205.0506,14.1264 205.8686,14.4624 L205.8686,16.8984 C204.7986,16.4994 203.5386,16.3104 202.1956,16.3104 C199.2346,16.3104 197.7646,17.4024 197.7646,21.4334 C197.7646,25.6954 199.0666,26.5984 202.0696,26.5984 C202.7196,26.5984 203.3706,26.5774 203.8956,26.4304 L203.8956,22.8194 L201.2716,22.8194 L201.2716,20.5094 L206.4786,20.5094 L206.4786,28.2994 C205.3866,28.6354 203.6856,28.9294 201.8596,28.9294 C197.4506,28.9294 194.8046,27.5434 194.8046,21.4334" id="Fill-6" fill="#000000" mask="url(#mask-2)"></path>
                <polygon id="Fill-7" fill="#000000" mask="url(#mask-2)" points="209.693 28.719 212.443 28.719 212.443 14.148 209.693 14.148"></polygon>
                <polygon id="Fill-8" fill="#000000" mask="url(#mask-2)" points="225.2099 16.5623 221.2409 16.5623 221.2409 28.7193 218.4909 28.7193 218.4909 16.5623 214.5439 16.5623 214.5439 14.1473 225.2099 14.1473"></polygon>
                <path d="M233.5058,22.5462 L231.4268,16.6042 L231.1748,16.6042 L229.0548,22.5462 L233.5058,22.5462 Z M234.3248,24.8562 L228.2348,24.8562 L226.8508,28.7192 L224.0158,28.7192 L229.4748,14.1482 L233.1698,14.1482 L238.5868,28.7192 L235.6688,28.7192 L234.3248,24.8562 Z" id="Fill-9" fill="#000000" mask="url(#mask-2)"></path>
                <polygon id="Fill-10" fill="#000000" mask="url(#mask-2)" points="249.1503 26.3045 249.1503 28.7195 240.4163 28.7195 240.4163 14.1475 243.1673 14.1475 243.1673 26.3045"></polygon>
                <polygon id="Fill-11" fill="#000000" mask="url(#mask-2)" points="183.4628 39.5623 179.4938 39.5623 179.4938 51.7193 176.7438 51.7193 176.7438 39.5623 172.7968 39.5623 172.7968 37.1473 183.4628 37.1473"></polygon>
                <polygon id="Fill-12" fill="#000000" mask="url(#mask-2)" points="194.5507 49.3045 194.5507 51.7195 185.5427 51.7195 185.5427 37.1475 194.1727 37.1475 194.1727 39.5415 188.2937 39.5415 188.2937 43.0685 193.7527 43.0685 193.7527 45.3575 188.2937 45.3575 188.2937 49.3045"></polygon>
                <path d="M196.9042,44.4334 C196.9042,38.8064 199.6132,36.9374 203.8542,36.9374 C205.2602,36.9374 206.2902,37.0844 207.1922,37.3994 L207.1922,39.8144 C206.2902,39.4994 205.2822,39.3104 204.0222,39.3104 C201.1672,39.3104 199.8432,40.5494 199.8432,44.4124 C199.8432,48.5064 201.1252,49.5144 203.9172,49.5144 C205.1982,49.5144 206.2482,49.3464 207.3602,48.9474 L207.3602,51.3204 C206.5002,51.6564 205.2402,51.9294 203.8122,51.9294 C199.6332,51.9294 196.9042,50.5434 196.9042,44.4334" id="Fill-13" fill="#000000" mask="url(#mask-2)"></path>
                <polygon id="Fill-14" fill="#000000" mask="url(#mask-2)" points="221.6825 37.1477 221.6825 51.7187 218.9315 51.7187 218.9315 45.0637 212.6955 45.0637 212.6955 51.7187 209.9455 51.7187 209.9455 37.1477 212.6955 37.1477 212.6955 42.7747 218.9315 42.7747 218.9315 37.1477"></polygon>
                <polygon id="Fill-15" fill="#000000" mask="url(#mask-2)" points="225.1493 37.1477 229.3703 37.1477 234.6613 48.1287 234.7863 48.1287 234.7863 37.1477 237.4733 37.1477 237.4733 51.7187 233.7373 51.7187 227.9833 40.0447 227.8583 40.0447 227.8583 51.7187 225.1493 51.7187"></polygon>
                <path d="M250.6415,44.4334 C250.6415,40.7174 249.9905,39.2054 247.0305,39.2054 C244.0475,39.2054 243.3975,40.7174 243.3975,44.4334 C243.3975,48.2124 244.0475,49.6194 247.0305,49.6194 C249.9905,49.6194 250.6415,48.2124 250.6415,44.4334 M240.5205,44.4334 C240.5205,38.5544 242.8305,36.9374 247.0305,36.9374 C251.2295,36.9374 253.5175,38.5544 253.5175,44.4334 C253.5175,50.3754 251.2295,51.9294 247.0305,51.9294 C242.8305,51.9294 240.5205,50.3754 240.5205,44.4334" id="Fill-16" fill="#000000" mask="url(#mask-2)"></path>
                <polygon id="Fill-17" fill="#000000" mask="url(#mask-2)" points="265.3202 49.3045 265.3202 51.7195 256.5862 51.7195 256.5862 37.1475 259.3372 37.1475 259.3372 49.3045"></polygon>
                <path d="M276.3232,44.4334 C276.3232,40.7174 275.6732,39.2054 272.7122,39.2054 C269.7312,39.2054 269.0802,40.7174 269.0802,44.4334 C269.0802,48.2124 269.7312,49.6194 272.7122,49.6194 C275.6732,49.6194 276.3232,48.2124 276.3232,44.4334 M266.2042,44.4334 C266.2042,38.5544 268.5122,36.9374 272.7122,36.9374 C276.9112,36.9374 279.2002,38.5544 279.2002,44.4334 C279.2002,50.3754 276.9112,51.9294 272.7122,51.9294 C268.5122,51.9294 266.2042,50.3754 266.2042,44.4334" id="Fill-18" fill="#000000" mask="url(#mask-2)"></path>
                <path d="M281.87,44.4334 C281.87,38.8064 284.599,36.9374 289.071,36.9374 C290.393,36.9374 292.116,37.1264 292.934,37.4624 L292.934,39.8984 C291.864,39.4994 290.604,39.3104 289.261,39.3104 C286.3,39.3104 284.83,40.4024 284.83,44.4334 C284.83,48.6954 286.132,49.5984 289.134,49.5984 C289.785,49.5984 290.436,49.5774 290.961,49.4304 L290.961,45.8194 L288.337,45.8194 L288.337,43.5094 L293.544,43.5094 L293.544,51.2994 C292.452,51.6354 290.751,51.9294 288.925,51.9294 C284.515,51.9294 281.87,50.5434 281.87,44.4334" id="Fill-19" fill="#000000" mask="url(#mask-2)"></path>
                <polygon id="Fill-20" fill="#000000" mask="url(#mask-2)" points="296.759 51.719 299.509 51.719 299.509 37.148 296.759 37.148"></polygon>
                <polygon id="Fill-21" fill="#000000" mask="url(#mask-2)" points="311.9599 49.3045 311.9599 51.7195 302.9529 51.7195 302.9529 37.1475 311.5829 37.1475 311.5829 39.5415 305.7039 39.5415 305.7039 43.0685 311.1629 43.0685 311.1629 45.3575 305.7039 45.3575 305.7039 49.3045"></polygon>
                <path d="M314.1454,51.4041 L314.1454,48.9471 C315.0284,49.2831 316.8124,49.5561 318.3444,49.5561 C320.3604,49.5561 321.1594,49.0731 321.1594,47.5831 C321.1594,46.2181 320.6754,45.8401 318.2824,45.2311 C315.2164,44.5171 314.2504,43.6561 314.2504,41.0951 C314.2504,38.1341 316.0364,36.9171 319.4164,36.9171 C320.9914,36.9171 322.3754,37.1691 323.1314,37.4421 L323.1314,39.7721 C322.3754,39.4991 320.7594,39.2261 319.4994,39.2261 C317.7364,39.2261 316.9384,39.5831 316.9384,41.0321 C316.9384,42.1451 317.2744,42.4811 319.5834,43.0481 C322.9854,43.8871 323.8874,44.8531 323.8874,47.6251 C323.8874,50.4801 322.2294,51.9291 318.4284,51.9291 C316.7084,51.9291 314.9644,51.6771 314.1454,51.4041" id="Fill-22" fill="#000000" mask="url(#mask-2)"></path>
            </g>
            <g transform="translate(34.992019, 3.662000)">
                <mask id="mask-4" fill="white">
                    <use xlink:href="#path-3"></use>
                </mask>
                <g id="Clip-24"></g>
                <path d="M6.01298101,0.08 C4.83198101,0.376 3.81198101,1.211 3.10898101,2.184 L3.10898101,2.184 C2.12998101,3.535 1.59698101,5.132 1.21698101,6.741 L1.21698101,6.741 C0.747981011,8.727 0.424981011,10.737 0.0649810108,12.74 L0.0649810108,12.74 C-0.00501898919,13.129 -0.0430189892,13.538 0.0809810108,13.913 L0.0809810108,13.913 C0.220981011,14.338 0.524981011,14.581 0.851981011,14.648 L0.851981011,14.648 C1.33898101,14.749 1.87898101,14.467 2.01998101,13.832 L2.01998101,13.832 C2.57498101,11.334 3.17598101,8.206 5.09598101,6.354 L5.09598101,6.354 C6.14798101,5.342 7.57598101,4.625 8.16798101,3.215 L8.16798101,3.215 C8.79198101,1.727 8.19398101,0 6.62798101,0 L6.62798101,0 C6.43698101,0 6.23198101,0.026 6.01298101,0.08" id="Fill-23" fill="#328AFB" mask="url(#mask-4)"></path>
            </g>
            <g transform="translate(13.359049, 14.487000)">
                <mask id="mask-6" fill="white">
                    <use xlink:href="#path-5"></use>
                </mask>
                <g id="Clip-26"></g>
                <path d="M14.5539513,0.063 C13.7229513,0.354 13.4009513,1.509 12.7549513,2.073 L12.7549513,2.073 C11.8479513,2.868 10.7439513,3.301 9.72095131,3.911 L9.72095131,3.911 C8.83395131,4.439 7.98195131,5.013 7.18195131,5.666 L7.18195131,5.666 C5.59295131,6.962 4.20795131,8.508 3.09695131,10.232 L3.09695131,10.232 C0.940951313,13.574 -0.142048687,17.546 0.0149513128,21.521 L0.0149513128,21.521 C0.446951313,32.58 10.0339513,41.128 21.2099513,40.178 L21.2099513,40.178 C31.1899513,39.329 38.9869513,30.916 39.0569513,20.922 L39.0569513,20.922 C39.0799513,17.54 38.2239513,14.176 36.5659513,11.227 L36.5659513,11.227 C34.9589513,8.375 32.6309513,5.947 29.8539513,4.218 L29.8539513,4.218 C27.0109513,2.447 23.7239513,1.432 20.3769513,1.29 L20.3769513,1.29 C20.0989513,1.279 19.8189513,1.279 19.5419513,1.279 L19.5419513,1.279 C19.2829513,1.279 19.0249513,1.279 18.7679513,1.268 L18.7679513,1.268 C18.0649513,1.241 17.3769513,1.142 16.7299513,0.773 L16.7299513,0.773 C16.2209513,0.48 15.5749513,0 14.9369513,0 L14.9369513,0 C14.8089513,0 14.6809513,0.019 14.5539513,0.063" id="Fill-25" fill="#247AFB" mask="url(#mask-6)"></path>
            </g>
            <g transform="translate(18.430394, 6.673000)">
                <mask id="mask-8" fill="white">
                    <use xlink:href="#path-7"></use>
                </mask>
                <g id="Clip-28"></g>
                <path d="M1.15360583,0.43 C0.73460583,0.773 0.45160583,1.259 0.27160583,1.792 L0.27160583,1.792 C0.0476058303,2.458 -0.0193941697,3.199 0.00460583026,3.836 L0.00460583026,3.836 C0.0136058303,4.1 0.0316058303,4.363 0.0576058303,4.626 L0.0576058303,4.626 C0.0856058303,4.915 0.12460583,5.204 0.17060583,5.491 L0.17060583,5.491 C0.43360583,7.09 0.96760583,8.63 1.59760583,10.117 L1.59760583,10.117 C2.20860583,11.561 2.85460583,13.038 3.61260583,14.412 L3.61260583,14.412 C3.94160583,15.007 4.45060583,15.842 5.24760583,15.448 L5.24760583,15.448 C5.71560583,15.217 5.97860583,14.716 5.90360583,14.11 L5.90360583,14.11 C5.85960583,13.748 5.61760583,13.426 5.47260583,13.108 L5.47260583,13.108 C4.72760583,11.475 4.10660583,9.563 4.15960583,7.714 L4.15960583,7.714 C4.22260583,5.518 5.43060583,2.595 3.83660583,0.688 L3.83660583,0.688 C3.45560583,0.235 2.91060583,0 2.36060583,0 L2.36060583,0 C1.93560583,0 1.50760583,0.14 1.15360583,0.43" id="Fill-27" fill="#328AFB" mask="url(#mask-8)"></path>
            </g>
            <g transform="translate(27.310008, 18.721000)">
                <path d="M20.278792,22.2832 C18.596792,24.1662 16.299792,25.2412 13.814792,25.3172 C11.017792,25.4022 8.26779205,24.2672 6.06179205,22.1212 C3.84979205,19.9692 2.46079205,17.0672 2.14379205,13.9352 C1.80679205,10.6182 2.75779205,7.4362 4.76079205,5.1992 C6.44579205,3.3182 8.73579205,2.2472 11.238792,2.1732 C11.336792,2.1702 11.432792,2.1682 11.530792,2.1682 C14.279792,2.1712 16.982792,3.3642 19.131792,5.5312 C21.281792,7.7002 22.626792,10.5882 22.913792,13.6502 C23.220792,16.9212 22.256792,20.0702 20.278792,22.2832 M23.685792,14.0202 C23.055792,6.7322 17.236792,0.8342 10.704792,0.843189714 C4.19279205,0.8532 -0.568207954,6.7342 0.0547920461,13.9812 C0.677792046,21.2312 6.45279205,27.1352 12.971792,27.1663219 C19.509792,27.1972 24.314792,21.3102 23.685792,14.0202" id="Fill-29" fill="#FFFFFF"></path>
                <path d="M70.924292,30.6865 C68.232292,30.6865 66.049292,28.5035 66.049292,25.8115 C66.049292,23.1175 68.232292,20.9355 70.924292,20.9355 C73.617292,20.9355 75.800292,23.1175 75.800292,25.8115 C75.800292,28.5035 73.617292,30.6865 70.924292,30.6865 M70.923292,18.4895 C66.880292,18.4895 63.602292,21.7675 63.602292,25.8115 C63.602292,29.8545 66.880292,33.1325 70.923292,33.1325 C74.967292,33.1325 78.245292,29.8545 78.245292,25.8115 C78.245292,21.7675 74.967292,18.4895 70.923292,18.4895" id="Fill-31" fill="#000000"></path>
                <path d="M55.858892,25.3901 L52.628892,25.3901 L52.628892,20.8111 L56.295892,20.8111 C58.420892,20.8111 59.410892,21.2281 59.410892,22.9551 C59.410892,24.7921 57.982892,25.3901 55.858892,25.3901 M59.205892,27.9241 C58.464892,27.3391 57.812892,27.2271 57.832892,27.0821 C57.849892,26.9581 58.196892,27.0141 58.814892,26.8291 C60.729892,26.2761 61.863892,24.8391 61.863892,22.9551 C61.863892,19.6411 59.569892,18.7391 56.255892,18.7391 L50.169892,18.7391 L50.169892,32.8431 C50.169892,32.8431 50.675892,32.9671 51.398892,32.9671 C52.111892,32.9671 52.626892,32.8441 52.628892,32.8431 L52.628892,27.4891 L54.211892,27.4891 C55.338892,27.4901 56.186892,27.6321 56.794892,28.0931 C57.447892,28.5891 57.963892,29.2671 58.649892,30.3361 C59.049892,30.9601 60.045892,32.8411 60.047892,32.8451 C60.047892,32.8451 60.635892,32.9671 61.487892,32.9671 C62.326892,32.9671 62.891892,32.7741 62.891892,32.7741 C61.288892,30.2191 60.425892,28.8901 59.205892,27.9241" id="Fill-33" fill="#000000"></path>
                <path d="M89.919392,18.7573 L89.919392,27.1243 C89.919392,29.3923 88.578392,30.8283 86.361392,30.8283 C84.145392,30.8283 82.804392,29.3923 82.804392,27.1243 L82.804392,18.7573 C82.803392,18.7573 82.295392,18.6343 81.566392,18.6343 C80.850392,18.6343 80.339392,18.7573 80.339392,18.7573 L80.339392,27.2093 C80.339392,31.3293 82.981392,33.1323 86.361392,33.1323 C89.742392,33.1323 92.384392,31.3293 92.384392,27.2093 L92.384392,18.7573 C92.384392,18.7573 91.873392,18.6343 91.156392,18.6343 C90.428392,18.6343 89.920392,18.7573 89.919392,18.7573" id="Fill-35" fill="#000000"></path>
                <path d="M101.113792,26.0825 L97.717792,26.0825 L97.717792,20.9565 L101.113792,20.9565 C103.237792,20.9565 104.152792,21.6555 104.152792,23.5305 C104.152792,25.4055 103.012792,26.0825 101.113792,26.0825 M101.525792,18.7575 L95.242792,18.7575 L95.242792,32.8355 C95.243792,32.8355 95.751792,32.9585 96.479792,32.9585 C97.196792,32.9585 97.714792,32.8365 97.717792,32.8355 L97.717792,28.2815 L101.609792,28.2815 C104.532792,28.2815 106.504792,26.3935 106.504792,23.4665 C106.504792,20.5385 104.560792,18.7575 101.525792,18.7575" id="Fill-37" fill="#000000"></path>
                <path d="M40.886192,20.7436 C42.871192,20.7436 44.362192,21.4696 45.595192,23.1746 L47.411192,21.8376 C45.782192,19.5876 44.003192,18.4886 40.688192,18.4886 C36.639192,18.4886 33.515192,21.6126 33.515192,25.8406 C33.515192,30.0906 36.517192,33.1326 40.236192,33.1326 C41.282192,33.1326 42.232192,32.9046 43.029192,32.5686 C43.759192,32.2726 44.168192,32.0486 44.640192,31.7276 C44.836192,31.5946 45.066192,31.4376 45.214192,31.4906 C45.340192,31.5366 45.349192,31.6736 45.349192,31.8266 C45.349192,32.2746 45.352192,32.8086 45.352192,32.8086 C45.353192,32.8096 45.739192,32.9316 46.290192,32.9316 C46.829192,32.9316 47.228192,32.7766 47.228192,32.7766 L47.226192,25.2576 L40.908192,25.2576 L40.908192,27.2656 L45.058192,27.2656 C45.046192,28.7726 43.685192,30.8776 40.572192,30.8776 C37.634192,30.8776 35.915192,28.5436 35.915192,25.8406 C35.915192,22.7866 38.325192,20.7436 40.886192,20.7436" id="Fill-39" fill="#000000"></path>
                <path d="M40.727992,8.456 C39.680992,8.456 38.453992,8.632 37.716992,8.877 C38.588992,6.2 40.008992,2.895 40.251992,2.347 C40.322992,2.188 40.393992,2.14 40.467992,2.14 C40.537992,2.14 40.607992,2.181 40.668992,2.316 C40.931992,2.895 42.350992,6.2 43.181992,8.683 C42.606992,8.593 41.817992,8.456 40.727992,8.456 L40.727992,8.456 Z M38.801992,0.087 C36.734992,4.456 34.959992,9.205 33.476992,14.231 C33.476992,14.231 33.982992,14.353 34.748992,14.353 C35.474992,14.353 35.983992,14.231 35.987992,14.229 C36.451992,12.587 37.199992,10.37 37.199992,10.37 C37.199992,10.37 39.151992,10.14 40.458992,10.251 C41.997992,10.381 42.787992,10.598 43.517992,10.923 C43.836992,11.066 44.004992,11.166 44.089992,11.427 C44.261992,11.956 44.567992,12.964 44.928992,14.227 C44.928992,14.227 45.455992,14.353 46.192992,14.353 C46.954992,14.353 47.436992,14.235 47.4349982,14.232 C45.985992,9.205 44.228992,4.456 42.123992,0.087 L38.801992,0.087 Z" id="Fill-41" fill="#000000"></path>
                <path d="M58.849092,0.123 L58.849092,10.351 C56.428092,6.453 54.003092,2.925 51.643092,0.123 C51.643092,0.123 51.144092,0 50.430092,0 C49.727092,0 49.219092,0.123 49.217092,0.123 L49.217092,14.229 C49.220092,14.23 49.714092,14.352 50.424092,14.352 C51.121092,14.352 51.626092,14.23 51.630092,14.229 L51.631092,3.3 C54.209092,6.849 56.630092,10.509 58.808092,14.229 C58.808092,14.229 59.318092,14.352 60.037092,14.352 C60.746092,14.352 61.263092,14.229 61.263092,14.229 L61.263092,0.123 C61.262092,0.123 60.766092,0 60.056092,0 C59.357092,0 58.849092,0.123 58.849092,0.123" id="Fill-43" fill="#000000"></path>
                <path d="M63.358892,2.4077 L68.474892,2.4077 L68.474892,14.2297 C68.475892,14.2297 69.013892,14.3527 69.785892,14.3527 C70.544892,14.3527 71.092892,14.2297 71.095892,14.2297 L71.095892,2.4077 L76.211892,2.4077 L76.211892,0.1337 L63.358892,0.1337 L63.358892,2.4077 Z" id="Fill-45" fill="#000000"></path>
            </g>
        </g>
    </g>
</svg>